<svg width="163" height="175" viewBox="0 0 163 175" fill="none" xmlns="http://www.w3.org/2000/svg">
<rect y="13" width="163" height="162" rx="65" fill="#3988FF"/>
<path d="M80.832 131.728C77.0347 131.728 73.472 131.472 70.144 130.96C66.8587 130.491 63.8507 129.872 61.12 129.104C58.432 128.293 56.064 127.461 54.016 126.608L52.288 108.176C55.6587 109.755 59.648 111.227 64.256 112.592C68.864 113.915 73.7493 114.576 78.912 114.576C83.904 114.576 87.4453 113.957 89.536 112.72C91.6693 111.44 92.736 109.456 92.736 106.768V106.32C92.736 104.528 92.2453 103.077 91.264 101.968C90.3253 100.816 88.7253 99.7707 86.464 98.832C84.2453 97.8507 81.2373 96.8053 77.44 95.696C71.7227 93.9893 66.944 92.0907 63.104 90C59.3067 87.9093 56.4693 85.3067 54.592 82.192C52.7147 79.0347 51.776 75.0453 51.776 70.224V69.392C51.776 61.968 54.2933 56.2933 59.328 52.368C64.4053 48.4427 71.8507 46.48 81.664 46.48C87.552 46.48 92.6293 46.992 96.896 48.016C101.205 49.04 104.853 50.256 107.84 51.664L109.568 68.816C106.283 67.2373 102.549 65.9147 98.368 64.848C94.2293 63.7387 89.792 63.184 85.056 63.184C81.728 63.184 79.104 63.4613 77.184 64.016C75.3067 64.5707 73.984 65.3813 73.216 66.448C72.448 67.472 72.064 68.7307 72.064 70.224V70.48C72.064 72.016 72.4907 73.36 73.344 74.512C74.24 75.664 75.8187 76.7733 78.08 77.84C80.384 78.9067 83.648 80.0587 87.872 81.296C93.5467 82.96 98.24 84.752 101.952 86.672C105.707 88.5493 108.501 91.0027 110.336 94.032C112.213 97.0187 113.152 101.008 113.152 106V107.024C113.152 115.259 110.485 121.445 105.152 125.584C99.8187 129.68 91.712 131.728 80.832 131.728Z" fill="white"/>
</svg>
