<svg id="Layer_1" data-name="Layer 1" xmlns="http://www.w3.org/2000/svg" viewBox="0 0 144 144"><defs><style>.cls-1{fill:#1d1d1b;}</style></defs><title>Icon</title><polygon class="cls-1" points="68.84 100.06 26.1 100.06 26.1 35.2 113.39 35.2 113.39 73.82 109.89 73.82 109.89 38.7 29.6 38.7 29.6 96.56 68.84 96.56 68.84 100.06"/><rect class="cls-1" x="27.85" y="49.06" width="83.79" height="3.5"/><rect class="cls-1" x="27.85" y="62.4" width="83.79" height="3.5"/><polygon class="cls-1" points="86.04 92.65 77.26 83.88 86.14 75 88.61 77.47 82.21 83.88 88.51 90.18 86.04 92.65"/><path class="cls-1" d="M105,108.8H79.74v-3.5h25.1c.11,0,4.32.09,7.06-2.58,1.66-1.61,2.5-4,2.5-7,0-9.88-9.71-10.1-10.13-10.11H79.74v-3.5h24.55c4.72.06,13.61,3,13.61,13.61,0,4-1.2,7.24-3.59,9.53A14.13,14.13,0,0,1,105,108.8Z"/></svg>