<?xml version="1.0" encoding="utf-8"?>
<!-- Generator: Adobe Illustrator 25.2.1, SVG Export Plug-In . SVG Version: 6.00 Build 0)  -->
<svg version="1.1" id="Layer_1" xmlns="http://www.w3.org/2000/svg" xmlns:xlink="http://www.w3.org/1999/xlink" x="0px" y="0px"
	 viewBox="0 0 60 60" style="enable-background:new 0 0 60 60;" xml:space="preserve">
<path id="_x3C_Compound_Path_x3E_" d="M16.0001411,41.3936234h-0.8048487l2.2466745-5.1812439h0.6587067l2.2245178,5.1812439
	h-0.8193359l-0.52705-1.2733154H16.519949L16.0001411,41.3936234z M16.7760162,39.4835434h1.9394779l-0.9663296-2.4296722
	L16.7760162,39.4835434z M23.6001568,36.8489304h1.661253v-0.6365509h-4.0472527v0.6365509h1.661253v4.544693h0.7247467V36.8489304z
	 M28.374836,36.2123795h-1.1269588v5.1812439h0.7025909v-4.3322945h0.0144863l1.7128067,4.3322945h0.46101l1.7196236-4.3322945
	h0.0144863v4.3322945h0.7247486v-5.1812439h-1.1269588l-1.5295963,3.980999h-0.0144863L28.374836,36.2123795z
	 M39.8473473,38.7960091c0,0.3803902-0.0660324,0.7295876-0.1985016,1.047184
	c-0.132061,0.3178024-0.3143578,0.5914497-0.5460739,0.8211403c-0.2321243,0.2294884-0.5079994,0.4081383-0.8280258,0.5357475
	c-0.3200302,0.1274033-0.6680145,0.1912079-1.043541,0.1912079c-0.3759346,0-0.722702-0.0638046-1.0402985-0.1912079
	c-0.3180046-0.1276093-0.5926628-0.3062592-0.8247871-0.5357475c-0.2317162-0.2296906-0.412796-0.5033379-0.5424309-0.8211403
	c-0.1300354-0.3175964-0.1948509-0.6667938-0.1948509-1.047184c0-0.3850479,0.0648155-0.7362709,0.1948509-1.0540733
	c0.1296349-0.3178024,0.3107147-0.589016,0.5424309-0.8142509c0.2321243-0.2248344,0.5067825-0.4000397,0.8247871-0.5252151
	c0.3175964-0.1251755,0.6643639-0.1879654,1.0402985-0.1879654c0.3755264,0,0.7235107,0.0627899,1.043541,0.1879654
	c0.3200264,0.1251755,0.5959015,0.3003807,0.8280258,0.5252151c0.2317162,0.225235,0.4140129,0.4964485,0.5460739,0.8142509
	C39.7813148,38.0597382,39.8473473,38.4109612,39.8473473,38.7960091z M39.1027718,38.7960091
	c0-0.2689896-0.0441589-0.5229874-0.1320648-0.7619972c-0.0883102-0.2388039-0.2134857-0.4486465-0.3759346-0.6295242
	c-0.1624451-0.1810799-0.3581085-0.3236771-0.5877991-0.42799c-0.2296944-0.1043129-0.4885521-0.1565704-0.7757683-0.1565704
	c-0.283165,0-0.5395966,0.0522575-0.7688828,0.1565704c-0.2296906,0.1043129-0.4245453,0.2469101-0.5845604,0.42799
	c-0.1600151,0.1808777-0.2843819,0.3907204-0.3722878,0.6295242c-0.0883102,0.2390099-0.132061,0.4930077-0.132061,0.7619972
	c0,0.2738457,0.0437508,0.5312881,0.132061,0.7723236c0.0879059,0.2412376,0.2134895,0.4512825,0.3755302,0.6297302
	c0.1624451,0.1786499,0.357296,0.3190155,0.5845604,0.4208984c0.2272606,0.1020851,0.4824753,0.1531296,0.7656403,0.1531296
	c0.2827606,0,0.5400009-0.0510445,0.7721214-0.1531296c0.2321243-0.1018829,0.4290009-0.2422485,0.5914459-0.4208984
	c0.1624489-0.1784477,0.2876244-0.3884926,0.3759346-0.6297302C39.0586128,39.3272972,39.1027718,39.0698547,39.1027718,38.7960091z
	 M44.755703,36.7786827c-0.1526871-0.1715202-0.3547859-0.3084106-0.6050758-0.4104729
	c-0.2502937-0.1018562-0.5192184-0.1530914-0.8067703-0.1530914c-0.2041206,0-0.4070282,0.0267296-0.6087227,0.0799904
	c-0.2016907,0.0534592-0.3827286,0.1381035-0.5427055,0.2539368c-0.159977,0.1160355-0.2899818,0.2620392-0.3896141,0.4382133
	c-0.0996323,0.1763802-0.1494446,0.3873863-0.1494446,0.6332245c0,0.2272072,0.0368538,0.4173584,0.1113739,0.5702477
	c0.0741158,0.1530914,0.1713181,0.2818832,0.2920074,0.3861732c0.1206932,0.1042862,0.2575836,0.1901474,0.410675,0.2573776
	c0.1526871,0.0672302,0.3082085,0.1241341,0.4657555,0.1705093c0.157547,0.0510292,0.3073997,0.1008453,0.4487457,0.1494446
	c0.141346,0.0488052,0.2656822,0.107933,0.3722,0.1773911c0.106514,0.069664,0.1911621,0.1543083,0.2539368,0.2539406
	c0.0627747,0.0998306,0.0939598,0.2237625,0.0939598,0.3721962c0,0.1484375-0.0303726,0.2747955-0.0903168,0.3790855
	c-0.0603447,0.10429-0.1381035,0.1913643-0.2332802,0.2608223c-0.0951767,0.0696602-0.2004776,0.1206932-0.3163109,0.1530914
	c-0.1162338,0.032402-0.2320671,0.0486031-0.3478966,0.0486031c-0.2272072,0-0.4382172-0.0532608-0.6330223-0.159977
	c-0.194809-0.1065178-0.3503304-0.245636-0.4661598-0.4173584l-0.5354156,0.4521866
	c0.1899452,0.2365227,0.4297104,0.4151306,0.7196922,0.5356178c0.2899818,0.120491,0.5900917,0.1808357,0.9011345,0.1808357
	c0.2178917,0,0.4297104-0.0301743,0.636261-0.0903168c0.2065544-0.0603447,0.388401-0.1518745,0.545948-0.2747955
	c0.1579514-0.1229172,0.2843132-0.2782364,0.3794899-0.4661598c0.0947685-0.1877174,0.1425591-0.409256,0.1425591-0.6642075
	c0-0.2458382-0.0441437-0.4487457-0.1324348-0.6087227c-0.0878868-0.1599731-0.2016945-0.2932205-0.3406105-0.3999405
	c-0.1393204-0.10672-0.2948418-0.1923752-0.4661598-0.2573814c-0.1717224-0.0650024-0.341011-0.1229172-0.5078735-0.1739464
	c-0.138916-0.0463753-0.2701378-0.0915337-0.3928566-0.1356773c-0.1231194-0.0439453-0.2296371-0.0974045-0.3199539-0.159977
	c-0.0907211-0.0625725-0.1624069-0.1391182-0.2158661-0.2296371c-0.0534592-0.0903168-0.0797844-0.2027054-0.0797844-0.337368
	c0-0.139122,0.0287552-0.2583961,0.0866699-0.3582268c0.0579147-0.0996323,0.1332474-0.1830635,0.2259941-0.2504959
	c0.0927429-0.067028,0.196022-0.1158333,0.3098259-0.1460037c0.1134033-0.0301743,0.2259941-0.0451584,0.337368-0.0451584
	c0.20858,0,0.3964996,0.0429306,0.5633621,0.1285896c0.1668625,0.0858612,0.2992973,0.196022,0.3964996,0.3304825
	L44.755703,36.7786827z M0.7106926,31.0359993h1.677546c3.1324098,0,5.6858244-2.5536194,5.6858244-5.6862526
	s-2.5534148-5.6862545-5.6858244-5.6862545h-1.677546V31.0359993z M16.8880062,19.6634922h-1.6775465
	c-3.13241,0-5.6858244,2.5536213-5.6858244,5.6862545s2.5534143,5.6862526,5.6858244,5.6862526h1.6775465V19.6634922z
	 M24.4390049,19.6633968H20.331686v11.3726616h4.1073189c3.1354103,0,5.6862793-2.550869,5.6862793-5.6863308
	S27.5744152,19.6633968,24.4390049,19.6633968z M24.4389877,29.3119011h-1.1690006h-1.2141876v-7.9243412h1.2141876h1.1690006
	c2.1828289,0,3.9621811,1.7793579,3.9621811,3.9621677C28.4011688,27.5325432,26.6218166,29.3119011,24.4389877,29.3119011z
	 M34.9405441,23.1661224c-2.1730385,0-3.9404335,1.7674065-3.9404335,3.9404449s1.767395,3.940443,3.9404335,3.940443
	s3.9404373-1.7674065,3.9404373-3.940443C38.8809814,24.9335384,37.1135826,23.1661224,34.9405441,23.1661224z
	 M34.9405441,29.4679413c-1.3183212,0-2.3758392-1.0720348-2.3758392-2.3758583c0-1.318306,1.0720177-2.3758583,2.3758392-2.3758583
	s2.375843,1.0720367,2.375843,2.3758583C37.3163872,28.4103985,36.2443657,29.4679413,34.9405441,29.4679413z
	 M39.9964638,31.0496864h1.7239304v-11.384285h-1.7239304V31.0496864z M47.1496239,23.1666088
	c-0.8374901,0-1.614109,0.2633266-2.2531471,0.7104111l-0.0000458-4.2116184h-1.7273598l0.0000458,11.384285h1.7273598v-0.7126007
	c0.6390381,0.4470825,1.415657,0.7104111,2.2531471,0.7104111c2.1730385,0,3.9404373-1.7674065,3.9404373-3.9404449
	C51.0900612,24.9340229,49.3226624,23.1666088,47.1496239,23.1666088z M47.1496239,29.4684277
	c-1.0541573,0-1.9398537-0.6862278-2.2531471-1.6275234c-0.0785179-0.2358913-0.1226921-0.4870682-0.1226921-0.7483349
	c0-0.2627258,0.0441742-0.5143204,0.1226921-0.7500248c0.3154144-0.9470158,1.2091751-1.6258335,2.2531471-1.6258335
	c1.3038216,0,2.375843,1.0720348,2.375843,2.3758583C49.5254669,28.4108829,48.4534454,29.4684277,47.1496239,29.4684277z
	 M57.4061852,23.1688251l-2.2458191,5.0495205l-2.2458115-5.0495205h-1.8832932l3.1874542,7.1646194l-0.0639648,0.138567
	l-0.0229683,0.0497589l-0.6898232,1.5588379c-0.0017395,0.0040207-0.0029068,0.0081177-0.0047073,0.0121269
	c-0.2066574,0.4632492-0.7517586,0.6728439-1.2137756,0.4667168l-0.247364-0.1103439l-0.4819221,1.081913l-0.2140923,0.4799156
	l0.0000191,0.0000076l0.0001526,0.0000687l0.0028648,0.0012856l0.5971451,0.2663803
	c1.1206627,0.4999771,2.4428406-0.0084267,2.9441109-1.1320686c0.004158-0.0092583,4.0818176-9.1216774,4.4649162-9.9777851
	H57.4061852z"/>
</svg>
