<?xml version="1.0" encoding="utf-8"?>
<!-- Generator: Adobe Illustrator 26.0.2, SVG Export Plug-In . SVG Version: 6.00 Build 0)  -->
<svg version="1.1" id="Layer_1" xmlns="http://www.w3.org/2000/svg" xmlns:xlink="http://www.w3.org/1999/xlink" x="0px" y="0px"
	 viewBox="0 0 60 60" style="enable-background:new 0 0 60 60;" xml:space="preserve">
<style type="text/css">
	.st0{fill:#FFFFFF;}
</style>
<g id="XMLID_4_">
	<g id="XMLID_78_">
		<rect x="29.27" y="0" class="st0" width="1.5" height="9.89"/>
	</g>
	<g id="XMLID_75_">
		<rect x="29.27" y="50.11" class="st0" width="1.5" height="9.89"/>
	</g>
	<g id="XMLID_72_">
		
			<rect x="11.55" y="7.34" transform="matrix(0.7071 -0.7071 0.7071 0.7071 -5.0856 12.3001)" class="st0" width="1.5" height="9.89"/>
	</g>
	<g id="XMLID_69_">
		
			<rect x="46.99" y="42.78" transform="matrix(0.7071 -0.7071 0.7071 0.7071 -19.7625 47.7297)" class="st0" width="1.5" height="9.89"/>
	</g>
	<g id="XMLID_66_">
		<rect x="50.13" y="29.25" class="st0" width="9.89" height="1.5"/>
	</g>
	<g id="XMLID_63_">
		
			<rect x="7.36" y="46.97" transform="matrix(0.7071 -0.7071 0.7071 0.7071 -30.1394 22.6756)" class="st0" width="9.89" height="1.5"/>
	</g>
	<g id="XMLID_60_">
		
			<rect x="42.79" y="11.54" transform="matrix(0.7071 -0.7071 0.7071 0.7071 5.2925 37.3545)" class="st0" width="9.89" height="1.5"/>
	</g>
	<g id="XMLID_5_">
		<g>
			<path class="st0" d="M30,13c-4.75,0-9.04,1.95-12.12,5.09c-0.48-0.06-0.97-0.1-1.47-0.1c-6.38,0-11.58,4.98-11.96,11.26H0.02v1.5
				h4.42c0.4,6.27,5.59,11.24,11.96,11.24c0.49,0,0.97-0.04,1.45-0.1c3.09,3.15,7.38,5.11,12.14,5.11c9.39,0,17-7.61,17-17
				S39.39,13,30,13z M9.69,34.37c-1.07,0-1.98-0.33-2.69-1.17l1.36-1.01c0.36,0.53,0.81,0.76,1.32,0.76c0.71,0,1.24-0.41,1.24-1.12
				c0-0.7-0.59-1.16-1.44-1.16H8.62v-1.44h0.86c0.91,0,1.33-0.52,1.33-1.12c0-0.61-0.47-1.01-1.19-1.01c-0.66,0-1.01,0.31-1.28,0.81
				l-1.33-0.69c0.49-0.92,1.48-1.47,2.59-1.47c1.63,0,2.73,0.91,2.73,2.36c0,0.76-0.36,1.38-0.95,1.81c0.68,0.4,1.1,1.05,1.1,1.92
				C12.49,33.27,11.5,34.37,9.69,34.37z M18.39,32.75v1.5h-5.35v-1.47c0-1.44,1.16-2.3,2.21-3c0.83-0.58,1.59-1.05,1.59-1.69
				c0-0.55-0.4-1-1.15-1c-0.73,0-1.19,0.49-1.47,1.2l-1.35-0.68c0.52-1.14,1.47-1.86,2.83-1.86c1.7,0,2.73,1.04,2.73,2.36
				c0,1.33-1.09,2.07-2.09,2.75c-0.87,0.59-1.71,1.12-1.73,1.91H18.39z M18.86,25.85h1.75l1.69,2.8l1.69-2.8h1.76L23.22,30
				l2.58,4.25h-1.75l-1.75-2.89l-1.74,2.89H18.8L21.37,30L18.86,25.85z M30,45.51c-3.97,0-7.59-1.51-10.33-3.98
				c5.04-1.42,8.74-6.04,8.74-11.54c0-5.49-3.69-10.1-8.71-11.53c2.74-2.45,6.35-3.96,10.31-3.96c8.55,0,15.5,6.96,15.5,15.5
				C45.5,38.55,38.55,45.51,30,45.51z"/>
		</g>
	</g>
</g>
</svg>
