<?xml version="1.0" encoding="utf-8"?>
<!-- Generator: Adobe Illustrator 25.2.1, SVG Export Plug-In . SVG Version: 6.00 Build 0)  -->
<svg version="1.1" id="Layer_1" xmlns="http://www.w3.org/2000/svg" xmlns:xlink="http://www.w3.org/1999/xlink" x="0px" y="0px"
	 viewBox="0 0 60 60" style="enable-background:new 0 0 60 60;" xml:space="preserve">
<g id="XMLID_2_">
	<path id="XMLID_13_" d="M57,9.6258001H3v38h19.9990997v5.4744987c0,2.1449013,1.7549,3.8997993,3.8997993,3.8997993h6.2245026
		c2.1448975,0,3.8997993-1.7548981,3.8997993-3.8997993v-5.4744987H57V9.6258001z M45.4620018,17.1257992h3v14h-3V17.1257992z
		 M11.5381002,17.1257992h3v14h-3V17.1257992z M7,19.6257992h3v9H7V19.6257992z M16.0380993,43.1258011H7v-5h9.0380993V43.1258011z
		 M17.5380993,43.1258011v-5h5.4610004v5H17.5380993z M35.523201,53.1002998c0,1.3232994-1.0764999,2.3997993-2.3997993,2.3997993
		h-6.2245026c-1.3232994,0-2.3997993-1.0764999-2.3997993-2.3997993V31.6299992
		c0-1.3232994,1.0764999-2.3997993,2.3997993-2.3997993h6.2245026c1.3232994,0,2.3997993,1.0764999,2.3997993,2.3997993V53.1002998z
		 M33.1234016,27.7301998h-6.2245026c-2.1448994,0-3.8997993,1.7549-3.8997993,3.8997993v2.4958019h-6.9610004v-20h27.9239025v20
		H37.023201v-2.4958019C37.023201,29.4850998,35.2682991,27.7301998,33.1234016,27.7301998z M42.4620018,43.1258011H37.023201v-5
		h5.4388008V43.1258011z M53,43.1258011h-9.0379982v-5H53V43.1258011z M53,28.6257992h-3v-9h3V28.6257992z"/>
	<path id="XMLID_31_" d="M30.0112,34.4622002c-1.5921001,0-2.8824005,1.2902985-2.8824005,2.8829002
		c0,1.5914993,1.2903004,2.8824005,2.8824005,2.8824005c1.5914993,0,2.8823013-1.2909012,2.8823013-2.8824005
		C32.8935013,35.7524986,31.6026993,34.4622002,30.0112,34.4622002z M30.0112,38.7275009
		c-0.7623005,0-1.3824005-0.6202011-1.3824005-1.3824005c0-0.7625008,0.6201-1.3829002,1.3824005-1.3829002
		c0.7621994,0,1.3822994,0.6203995,1.3822994,1.3829002C31.3934994,38.1072998,30.7733994,38.7275009,30.0112,38.7275009z"/>
</g>
</svg>
