<?xml version="1.0" encoding="utf-8"?>
<!-- Generator: Adobe Illustrator 25.2.1, SVG Export Plug-In . SVG Version: 6.00 Build 0)  -->
<svg version="1.1" xmlns="http://www.w3.org/2000/svg" xmlns:xlink="http://www.w3.org/1999/xlink" x="0px" y="0px"
	 viewBox="0 0 60 60" style="enable-background:new 0 0 60 60;" xml:space="preserve">
<style type="text/css">
	.st0{fill:none;}
</style>
<g id="Layer_1">
	<g>
		<rect x="22.74" y="15.09" width="1" height="29.85"/>
		<polygon points="27.23,30.75 31.9,30.75 31.9,29.25 27.23,29.25 27.23,27.08 24.31,30 27.23,32.92 		"/>
		<polygon points="19.26,29.25 14.59,29.25 14.59,30.75 19.26,30.75 19.26,32.92 22.18,30 19.26,27.08 		"/>
	</g>
	<path d="M23.25,3.02l-2,1.06v5.79C11.01,10.87,3,19.51,3,30.02c0,10.51,8.01,19.14,18.25,20.14v5.79l2,1.06L57,43.72V16.31
		L23.25,3.02z M4.5,30.02c0-10.33,8.41-18.74,18.74-18.74c10.33,0,18.74,8.41,18.74,18.74c0,10.34-8.41,18.74-18.74,18.74
		C12.91,48.76,4.5,40.35,4.5,30.02z M55.5,42.7L24.75,54.81v-4.63c10.47-0.77,18.73-9.5,18.73-20.17c0-10.67-8.26-19.39-18.73-20.17
		V5.22L55.5,17.33V42.7z"/>
</g>
<g id="Layer_2">
	<rect y="0" class="st0" width="60" height="60"/>
</g>
</svg>
