<?xml version="1.0" encoding="utf-8"?>
<!-- Generator: Adobe Illustrator 26.0.3, SVG Export Plug-In . SVG Version: 6.00 Build 0)  -->
<svg version="1.1" id="Layer_1" xmlns="http://www.w3.org/2000/svg" xmlns:xlink="http://www.w3.org/1999/xlink" x="0px" y="0px"
	 viewBox="0 0 60 60" style="enable-background:new 0 0 60 60;" xml:space="preserve">
<style type="text/css">
	.st0{fill:#FFFFFF;}
</style>
<g id="XMLID_173_">
	<g id="XMLID_303_">
		<g id="XMLID_390_">
			<polygon id="XMLID_395_" class="st0" points="41.52,18.96 33.38,26.9 33.38,26.33 33.38,18.96 30.15,18.96 30.15,41.05 
				33.38,41.05 33.38,32.95 33.38,31.78 41.52,41.05 46.08,41.05 35.63,29.15 46.08,18.96 			"/>
			<path id="XMLID_391_" class="st0" d="M25.01,29.15c1.25-1.11,2.04-2.73,2.04-4.53c0-3.35-2.72-6.07-6.07-6.07
				c-3.35,0-6.07,2.72-6.07,6.07c0,1.8,0.79,3.42,2.04,4.53c-1.67,1.24-2.76,3.22-2.76,5.46c0,3.74,3.04,6.79,6.79,6.79
				c3.74,0,6.79-3.04,6.79-6.79C27.77,32.37,26.68,30.39,25.01,29.15 M20.98,21.78c1.56,0,2.83,1.27,2.83,2.83
				c0,1.56-1.27,2.83-2.83,2.83c-1.56,0-2.83-1.27-2.83-2.83C18.15,23.05,19.42,21.78,20.98,21.78 M20.98,38.16
				c-1.96,0-3.55-1.59-3.55-3.55c0-1.96,1.59-3.55,3.55-3.55s3.55,1.59,3.55,3.55C24.53,36.56,22.94,38.16,20.98,38.16"/>
		</g>
		<g id="XMLID_378_">
			<path id="XMLID_387_" class="st0" d="M24.37,15.28V11.5h1.21c0.22,0,0.42,0.03,0.6,0.1c0.17,0.06,0.32,0.15,0.44,0.27
				c0.12,0.12,0.21,0.25,0.28,0.41c0.06,0.16,0.1,0.34,0.1,0.54c0,0.23-0.05,0.44-0.16,0.64c-0.11,0.2-0.27,0.35-0.47,0.46
				l0.76,1.36h-0.8l-0.61-1.15h-0.63v1.15H24.37z M25.52,13.48c0.14,0,0.27-0.02,0.36-0.05c0.1-0.04,0.18-0.09,0.24-0.15
				c0.06-0.06,0.1-0.14,0.13-0.22s0.04-0.17,0.04-0.26c0-0.19-0.06-0.35-0.18-0.46c-0.12-0.11-0.32-0.17-0.59-0.17h-0.45v1.32H25.52
				z"/>
			<path id="XMLID_384_" class="st0" d="M28.9,15.28c-0.24,0-0.46-0.04-0.65-0.12c-0.2-0.08-0.36-0.19-0.5-0.32
				c-0.14-0.14-0.25-0.3-0.33-0.48c-0.08-0.18-0.12-0.38-0.12-0.59c0-0.21,0.04-0.41,0.12-0.6c0.08-0.19,0.19-0.35,0.33-0.48
				c0.14-0.14,0.31-0.24,0.5-0.32c0.19-0.08,0.4-0.12,0.62-0.12c0.22,0,0.43,0.04,0.62,0.11c0.19,0.07,0.36,0.17,0.49,0.31
				c0.14,0.13,0.25,0.29,0.32,0.46c0.08,0.18,0.12,0.37,0.12,0.58v0.25h-2.46c0.05,0.21,0.15,0.39,0.32,0.52
				c0.16,0.13,0.37,0.2,0.62,0.2c0.2,0,0.37-0.05,0.51-0.14c0.15-0.1,0.25-0.23,0.33-0.39l0.57,0.33c-0.13,0.24-0.32,0.44-0.55,0.59
				C29.53,15.21,29.24,15.28,28.9,15.28z M28.88,12.86c-0.21,0-0.39,0.05-0.55,0.14c-0.15,0.09-0.26,0.22-0.32,0.37h1.72
				c-0.05-0.17-0.15-0.29-0.3-0.38C29.28,12.9,29.09,12.86,28.88,12.86z"/>
			<path id="XMLID_381_" class="st0" d="M32.29,15.28c-0.18,0-0.36-0.03-0.54-0.1c-0.18-0.07-0.34-0.17-0.48-0.3
				c-0.14-0.13-0.26-0.29-0.34-0.48s-0.13-0.4-0.13-0.64c0-0.24,0.04-0.46,0.13-0.65c0.08-0.19,0.2-0.35,0.34-0.48
				c0.14-0.13,0.3-0.23,0.48-0.3c0.18-0.07,0.37-0.1,0.56-0.1c0.2,0,0.38,0.04,0.55,0.11c0.17,0.07,0.31,0.17,0.42,0.3v-0.4h0.7
				v3.03h-0.7v-0.43c-0.11,0.14-0.25,0.24-0.42,0.32C32.68,15.24,32.49,15.28,32.29,15.28z M32.41,14.64c0.13,0,0.25-0.02,0.36-0.07
				c0.11-0.05,0.21-0.11,0.28-0.19c0.08-0.08,0.14-0.18,0.19-0.28c0.05-0.11,0.07-0.22,0.07-0.35c0-0.12-0.02-0.23-0.07-0.34
				c-0.05-0.11-0.11-0.2-0.19-0.28c-0.08-0.08-0.17-0.14-0.28-0.19c-0.11-0.05-0.23-0.07-0.36-0.07c-0.13,0-0.25,0.02-0.36,0.07
				c-0.11,0.05-0.21,0.11-0.29,0.18c-0.08,0.08-0.15,0.17-0.19,0.28c-0.05,0.11-0.07,0.22-0.07,0.35c0,0.12,0.02,0.24,0.07,0.35
				c0.05,0.11,0.11,0.2,0.19,0.28c0.08,0.08,0.18,0.14,0.29,0.19C32.16,14.62,32.28,14.64,32.41,14.64z"/>
			<path id="XMLID_379_" class="st0" d="M34.74,11.45h0.7v3.83h-0.7V11.45z"/>
		</g>
		<g id="XMLID_325_">
			<path id="XMLID_375_" class="st0" d="M16.76,48.17v-3.78h1.21c0.22,0,0.42,0.03,0.6,0.1c0.17,0.06,0.32,0.15,0.44,0.27
				c0.12,0.12,0.21,0.25,0.28,0.41c0.06,0.16,0.1,0.34,0.1,0.54c0,0.23-0.05,0.44-0.16,0.64c-0.11,0.2-0.27,0.35-0.47,0.46
				l0.76,1.36h-0.8l-0.61-1.15h-0.63v1.15H16.76z M17.91,46.37c0.14,0,0.27-0.02,0.36-0.05c0.1-0.04,0.18-0.09,0.24-0.15
				c0.06-0.06,0.1-0.14,0.13-0.22c0.03-0.08,0.04-0.17,0.04-0.26c0-0.19-0.06-0.35-0.18-0.46c-0.12-0.11-0.32-0.17-0.59-0.17h-0.45
				v1.32H17.91z"/>
			<path id="XMLID_175_" class="st0" d="M21.3,48.18c-0.24,0-0.46-0.04-0.65-0.12c-0.2-0.08-0.37-0.19-0.5-0.32
				c-0.14-0.14-0.25-0.3-0.33-0.48c-0.08-0.18-0.12-0.38-0.12-0.59c0-0.21,0.04-0.41,0.12-0.6c0.08-0.19,0.19-0.35,0.33-0.48
				c0.14-0.14,0.31-0.24,0.5-0.32s0.4-0.12,0.62-0.12c0.22,0,0.43,0.04,0.62,0.11s0.36,0.17,0.49,0.31
				c0.14,0.13,0.25,0.29,0.32,0.46c0.08,0.18,0.12,0.37,0.12,0.58v0.25h-2.46c0.05,0.21,0.15,0.39,0.32,0.52
				c0.16,0.13,0.37,0.2,0.62,0.2c0.2,0,0.37-0.05,0.51-0.14c0.14-0.1,0.25-0.23,0.33-0.39l0.57,0.33c-0.13,0.25-0.32,0.44-0.55,0.59
				C21.92,48.1,21.64,48.18,21.3,48.18z M21.27,45.76c-0.21,0-0.39,0.05-0.55,0.14c-0.15,0.09-0.26,0.22-0.32,0.37h1.72
				c-0.05-0.17-0.15-0.29-0.3-0.38C21.67,45.8,21.49,45.76,21.27,45.76z"/>
			<path id="XMLID_370_" class="st0" d="M24.46,48.18c-0.33,0-0.61-0.06-0.83-0.19c-0.22-0.12-0.39-0.3-0.51-0.54l0.65-0.29
				c0.07,0.13,0.17,0.23,0.3,0.31c0.12,0.07,0.27,0.11,0.43,0.11c0.17,0,0.3-0.03,0.39-0.1c0.09-0.07,0.13-0.15,0.13-0.25
				c0-0.05-0.02-0.1-0.06-0.13c-0.04-0.03-0.09-0.06-0.16-0.09c-0.06-0.02-0.14-0.05-0.23-0.06c-0.09-0.02-0.18-0.03-0.27-0.05
				c-0.13-0.03-0.26-0.06-0.39-0.09c-0.13-0.04-0.24-0.09-0.34-0.15c-0.1-0.06-0.18-0.15-0.24-0.25c-0.06-0.1-0.09-0.23-0.09-0.38
				c0-0.12,0.03-0.23,0.09-0.33c0.06-0.11,0.14-0.2,0.24-0.28c0.1-0.08,0.23-0.15,0.38-0.19c0.15-0.05,0.31-0.07,0.49-0.07
				c0.3,0,0.56,0.06,0.76,0.17c0.2,0.11,0.36,0.27,0.48,0.46l-0.6,0.28c-0.06-0.1-0.15-0.18-0.26-0.24
				c-0.11-0.06-0.24-0.09-0.38-0.09c-0.17,0-0.29,0.03-0.37,0.09c-0.08,0.06-0.12,0.14-0.12,0.22c0,0.1,0.06,0.16,0.18,0.2
				c0.12,0.04,0.29,0.08,0.52,0.13c0.12,0.02,0.25,0.05,0.38,0.09c0.13,0.04,0.24,0.09,0.34,0.15s0.19,0.15,0.25,0.25
				c0.06,0.1,0.1,0.23,0.1,0.38c0,0.1-0.02,0.21-0.07,0.32c-0.05,0.11-0.12,0.21-0.23,0.31c-0.1,0.09-0.23,0.17-0.39,0.23
				C24.86,48.15,24.68,48.18,24.46,48.18z"/>
			<path id="XMLID_367_" class="st0" d="M27.58,48.18c-0.22,0-0.42-0.04-0.61-0.12c-0.19-0.08-0.36-0.19-0.5-0.32
				c-0.14-0.14-0.25-0.3-0.33-0.48c-0.08-0.18-0.12-0.38-0.12-0.59c0-0.21,0.04-0.41,0.12-0.6c0.08-0.18,0.19-0.35,0.33-0.48
				c0.14-0.14,0.31-0.25,0.5-0.32c0.19-0.08,0.4-0.12,0.61-0.12c0.22,0,0.42,0.04,0.61,0.12c0.19,0.08,0.36,0.19,0.5,0.32
				c0.14,0.14,0.26,0.3,0.34,0.48c0.08,0.18,0.12,0.38,0.12,0.6c0,0.21-0.04,0.41-0.12,0.59c-0.08,0.18-0.19,0.35-0.34,0.48
				c-0.14,0.14-0.31,0.25-0.5,0.32C28,48.14,27.79,48.18,27.58,48.18z M27.58,47.52c0.12,0,0.24-0.02,0.35-0.07
				c0.11-0.05,0.2-0.11,0.28-0.18c0.08-0.08,0.14-0.17,0.19-0.27c0.04-0.11,0.07-0.22,0.07-0.33c0-0.12-0.02-0.23-0.07-0.34
				c-0.04-0.11-0.11-0.2-0.19-0.27c-0.08-0.08-0.17-0.14-0.28-0.18c-0.11-0.05-0.22-0.07-0.35-0.07c-0.12,0-0.24,0.02-0.35,0.07
				c-0.11,0.05-0.2,0.11-0.28,0.18c-0.08,0.08-0.14,0.17-0.18,0.27c-0.05,0.11-0.07,0.22-0.07,0.34c0,0.12,0.02,0.23,0.07,0.33
				c0.04,0.11,0.11,0.2,0.18,0.27c0.08,0.08,0.17,0.14,0.28,0.18C27.34,47.5,27.45,47.52,27.58,47.52z"/>
			<path id="XMLID_365_" class="st0" d="M29.61,44.34h0.7v3.83h-0.7V44.34z"/>
			<path id="XMLID_342_" class="st0" d="M33.57,48.17h-0.69v-0.38c-0.1,0.12-0.22,0.21-0.36,0.28c-0.14,0.07-0.31,0.1-0.51,0.1
				c-0.36,0-0.64-0.11-0.85-0.34c-0.21-0.22-0.31-0.54-0.31-0.94v-1.76h0.71v1.68c0,0.23,0.05,0.41,0.16,0.54
				c0.11,0.13,0.27,0.2,0.49,0.2c0.19,0,0.35-0.07,0.48-0.21c0.13-0.14,0.19-0.34,0.19-0.6v-1.62h0.7V48.17z"/>
			<path id="XMLID_340_" class="st0" d="M33.97,45.14h0.52v-0.46l0.7-0.48v0.94h0.62v0.63h-0.62v1.13c0,0.13,0.01,0.24,0.02,0.32
				c0.01,0.08,0.04,0.14,0.09,0.19c0.04,0.04,0.11,0.07,0.19,0.09c0.08,0.01,0.19,0.02,0.32,0.02v0.66h-0.1
				c-0.23,0-0.43-0.02-0.59-0.06c-0.16-0.04-0.28-0.11-0.38-0.21c-0.09-0.1-0.16-0.23-0.2-0.39c-0.04-0.16-0.06-0.36-0.06-0.6v-1.14
				h-0.52V45.14z"/>
			<path id="XMLID_334_" class="st0" d="M36.21,44.4c0-0.13,0.04-0.24,0.12-0.32c0.08-0.08,0.19-0.12,0.32-0.12
				c0.14,0,0.25,0.04,0.32,0.12c0.08,0.08,0.12,0.19,0.12,0.32c0,0.13-0.04,0.24-0.12,0.32c-0.08,0.08-0.19,0.12-0.32,0.12
				c-0.14,0-0.25-0.04-0.33-0.12C36.25,44.64,36.21,44.54,36.21,44.4z M36.3,45.14H37v3.03h-0.7V45.14z"/>
			<path id="XMLID_328_" class="st0" d="M39.01,48.18c-0.22,0-0.42-0.04-0.61-0.12c-0.19-0.08-0.36-0.19-0.5-0.32
				c-0.14-0.14-0.25-0.3-0.33-0.48c-0.08-0.18-0.12-0.38-0.12-0.59c0-0.21,0.04-0.41,0.12-0.6c0.08-0.18,0.19-0.35,0.33-0.48
				c0.14-0.14,0.31-0.25,0.5-0.32c0.19-0.08,0.4-0.12,0.61-0.12c0.22,0,0.42,0.04,0.61,0.12c0.19,0.08,0.36,0.19,0.5,0.32
				c0.14,0.14,0.26,0.3,0.34,0.48c0.08,0.18,0.12,0.38,0.12,0.6c0,0.21-0.04,0.41-0.12,0.59c-0.08,0.18-0.19,0.35-0.34,0.48
				c-0.14,0.14-0.31,0.25-0.5,0.32C39.43,48.14,39.23,48.18,39.01,48.18z M39.01,47.52c0.12,0,0.24-0.02,0.35-0.07
				c0.11-0.05,0.2-0.11,0.28-0.18c0.08-0.08,0.14-0.17,0.19-0.27c0.04-0.11,0.07-0.22,0.07-0.33c0-0.12-0.02-0.23-0.07-0.34
				c-0.04-0.11-0.11-0.2-0.19-0.27c-0.08-0.08-0.17-0.14-0.28-0.18c-0.11-0.05-0.22-0.07-0.35-0.07c-0.12,0-0.24,0.02-0.35,0.07
				c-0.11,0.05-0.2,0.11-0.28,0.18c-0.08,0.08-0.14,0.17-0.18,0.27c-0.05,0.11-0.07,0.22-0.07,0.34c0,0.12,0.02,0.23,0.07,0.33
				c0.04,0.11,0.11,0.2,0.18,0.27c0.08,0.08,0.17,0.14,0.28,0.18C38.77,47.5,38.88,47.52,39.01,47.52z"/>
			<path id="XMLID_1_" class="st0" d="M41.01,45.14h0.69v0.41c0.1-0.13,0.23-0.23,0.38-0.3c0.15-0.08,0.33-0.11,0.53-0.11
				c0.38,0,0.67,0.11,0.88,0.34c0.21,0.22,0.32,0.54,0.32,0.93v1.76H43.1v-1.68c0-0.23-0.06-0.41-0.17-0.54
				c-0.11-0.13-0.28-0.2-0.51-0.2c-0.2,0-0.37,0.07-0.5,0.21c-0.14,0.14-0.2,0.34-0.2,0.6v1.62h-0.7V45.14z"/>
		</g>
		<path id="XMLID_6_" class="st0" d="M40.56,4.51L55.5,19.44v21.12L40.56,55.51H19.44L4.5,40.57V19.44L19.44,4.51H40.56 M41.18,3.01
			H18.82L3,18.82v22.37l15.82,15.82h22.37L57,41.19V18.82L41.18,3.01L41.18,3.01z"/>
	</g>
</g>
</svg>
