<svg xmlns="http://www.w3.org/2000/svg" viewBox="0 0 60 60" style="enable-background:new 0 0 60 60" xml:space="preserve"><style>.st1{fill:#fff}</style><g id="Layer_2"><path id="XMLID_1_" style="fill:none" d="M0 0h60v60H0z"/></g><g id="Layer_1"><g id="XMLID_888_"><path id="XMLID_999_" class="st1" d="M51.844 22.64A6.317 6.317 0 0 1 57 17.485a6.312 6.312 0 0 1-5.156-5.154 6.305 6.305 0 0 1-5.153 5.154 6.324 6.324 0 0 1 3.397 1.758 6.298 6.298 0 0 1 1.756 3.399z"/><path id="XMLID_1002_" class="st1" d="M51.844 27.467a6.299 6.299 0 0 1-5.153 5.156 6.297 6.297 0 0 1 3.397 1.758 6.287 6.287 0 0 1 1.756 3.396 6.306 6.306 0 0 1 1.76-3.396A6.284 6.284 0 0 1 57 32.623a6.31 6.31 0 0 1-5.156-5.156z"/><path id="XMLID_1005_" class="st1" d="M51.844 42.605a6.31 6.31 0 0 1-5.152 5.154 6.3 6.3 0 0 1 5.152 5.154A6.32 6.32 0 0 1 57 47.761a6.312 6.312 0 0 1-5.156-5.154z"/><path id="XMLID_1009_" class="st1" d="M40.99 11.556 3 30.851v2.934l39.115-19.869V57h1.631V12.916z"/><path id="XMLID_1122_" class="st1" d="M3 35.186V57h1.984a.62.62 0 0 0-.19-.238.596.596 0 0 0-.534-.07c.195-.141.383-.348.535-.614.152-.262.244-.54.277-.799.035.225.125.41.278.52.152.11.338.127.535.068a1.997 1.997 0 0 0-.535.612c-.1.171-.162.347-.211.521h5.892c-.027-.031-.047-.07-.082-.096-.15-.107-.338-.127-.535-.07.197-.14.385-.348.535-.611.153-.264.244-.541.278-.801.035.224.127.41.277.52.152.109.34.126.535.07-.195.14-.383.35-.535.611-.07.123-.127.25-.17.377h5.648a.628.628 0 0 0-.412-.021c.196-.141.385-.348.535-.614a2.16 2.16 0 0 0 .278-.799c.033.225.125.41.277.52.153.11.338.127.535.068a1.995 1.995 0 0 0-.535.612c-.045.078-.072.156-.105.234h5.304c.147-.13.286-.29.403-.49.15-.264.242-.541.277-.801.033.225.123.412.277.521.15.108.338.125.536.067a1.96 1.96 0 0 0-.536.613c-.017.03-.025.06-.04.09h5.392a2.205 2.205 0 0 0 .525-1.148c.034.224.125.41.278.521.15.107.338.127.535.068-.182.131-.354.325-.498.559h5.418c.049-.066.101-.127.144-.203a2.18 2.18 0 0 0 .278-.8c.035.224.125.41.277.519.152.109.34.127.535.068-.14.103-.271.25-.394.416h4.654V15.924L3 35.186zm2.35 18.023a2.226 2.226 0 0 0-.278.803c-.033-.227-.125-.41-.277-.52a.596.596 0 0 0-.535-.07c.195-.14.383-.35.535-.613a2.16 2.16 0 0 0 .277-.8c.035.225.125.41.278.52.152.108.338.127.535.069-.197.142-.383.35-.535.61zm0-3.27a2.23 2.23 0 0 0-.278.801c-.033-.224-.125-.408-.277-.517a.596.596 0 0 0-.535-.07c.195-.143.383-.35.535-.614.152-.264.244-.541.277-.8.035.224.125.41.278.52.152.108.338.128.535.07-.197.142-.383.349-.535.61zm0-3.27a2.204 2.204 0 0 0-.278.802c-.033-.225-.125-.41-.277-.52a.608.608 0 0 0-.535-.07c.195-.14.383-.348.535-.611.152-.264.244-.541.277-.801.035.224.125.41.278.52.152.109.338.126.535.07-.197.14-.383.35-.535.61zm0-3.27a2.226 2.226 0 0 0-.278.802c-.033-.224-.125-.41-.277-.52-.152-.109-.34-.126-.535-.07.195-.14.383-.347.535-.611a2.18 2.18 0 0 0 .277-.8c.035.224.125.41.278.519.152.11.338.127.535.068a1.998 1.998 0 0 0-.535.611zm0-3.27a2.225 2.225 0 0 0-.278.803c-.033-.225-.125-.41-.277-.52a.596.596 0 0 0-.535-.07c.195-.14.383-.35.535-.613.152-.262.244-.541.277-.8.035.225.125.41.278.52.152.11.338.127.535.069-.197.142-.383.35-.535.61zm0-3.27a2.23 2.23 0 0 0-.278.801c-.033-.224-.125-.408-.277-.517a.596.596 0 0 0-.535-.07c.195-.143.383-.35.535-.614a2.17 2.17 0 0 0 .277-.799c.035.225.125.408.278.52.152.107.338.127.535.068-.197.143-.383.35-.535.611zm3.078 18.057a2.134 2.134 0 0 0-.278.8c-.035-.224-.125-.41-.277-.519-.152-.11-.34-.127-.535-.068.195-.143.383-.35.535-.613.15-.264.242-.541.277-.801.034.224.123.412.278.521.15.11.338.127.535.069a1.95 1.95 0 0 0-.535.611zm0-3.27a2.17 2.17 0 0 0-.278.801c-.035-.224-.127-.41-.277-.52-.152-.109-.34-.126-.535-.07.195-.14.383-.347.535-.61.15-.265.242-.542.277-.802.034.225.125.41.278.52.15.11.338.127.535.07-.197.14-.385.35-.535.611zm0-3.271a2.153 2.153 0 0 0-.278.803c-.035-.225-.127-.41-.277-.52a.596.596 0 0 0-.535-.07c.195-.14.383-.348.535-.613.15-.262.242-.541.277-.8.034.225.123.41.278.52.15.11.338.127.535.069a1.95 1.95 0 0 0-.535.611zm0-3.27a2.19 2.19 0 0 0-.278.803c-.035-.224-.127-.41-.277-.52a.596.596 0 0 0-.535-.07c.195-.14.383-.35.535-.613.15-.262.242-.541.277-.799.034.225.125.41.278.52.15.107.338.127.535.068a1.95 1.95 0 0 0-.535.611zm0-3.27a2.146 2.146 0 0 0-.278.802c-.035-.225-.127-.408-.277-.518a.596.596 0 0 0-.535-.07c.195-.143.383-.35.535-.613.15-.264.242-.541.277-.801.034.224.123.412.278.521.15.11.338.127.535.069a1.95 1.95 0 0 0-.535.61zm0-3.269a2.169 2.169 0 0 0-.278.801c-.035-.224-.127-.41-.277-.52a.608.608 0 0 0-.535-.07c.195-.14.383-.347.535-.611.15-.264.242-.541.277-.8.034.224.125.41.278.519.15.11.338.129.535.07a1.93 1.93 0 0 0-.535.611zm0-3.271a2.154 2.154 0 0 0-.278.803c-.035-.225-.127-.41-.277-.52-.152-.11-.34-.127-.535-.07.195-.14.383-.348.535-.612.15-.263.242-.542.277-.8.034.224.123.41.278.52.15.109.338.126.535.068a1.95 1.95 0 0 0-.535.61zm3.076 18.059a2.204 2.204 0 0 0-.277.8c-.034-.224-.125-.41-.278-.52-.15-.109-.338-.128-.535-.068.197-.142.385-.35.535-.613a2.18 2.18 0 0 0 .278-.8c.035.224.127.41.277.519a.59.59 0 0 0 .535.068 2.01 2.01 0 0 0-.535.614zm0-3.272a2.214 2.214 0 0 0-.277.803c-.034-.225-.125-.41-.278-.52-.15-.11-.338-.127-.535-.07.197-.14.385-.35.535-.613.153-.262.244-.54.278-.8.035.225.127.41.277.52.152.108.34.127.535.069a2.023 2.023 0 0 0-.535.611zm0-3.27a2.212 2.212 0 0 0-.277.803c-.034-.226-.125-.41-.278-.52-.15-.109-.338-.128-.535-.07a1.92 1.92 0 0 0 .535-.613c.153-.264.244-.54.278-.8.035.224.127.41.277.52.152.11.34.128.535.07-.195.142-.383.349-.535.61zm0-3.27c-.15.265-.242.544-.277.802-.034-.223-.125-.41-.278-.52-.15-.11-.338-.127-.535-.068.197-.143.385-.35.535-.613.153-.264.244-.541.278-.801.035.226.127.412.277.52.152.109.34.128.535.07-.195.14-.383.35-.535.61zm0-3.27a2.226 2.226 0 0 0-.277.802c-.034-.224-.125-.41-.278-.52-.15-.107-.338-.126-.535-.07.197-.14.385-.347.535-.611a2.18 2.18 0 0 0 .278-.8c.035.224.127.41.277.519.152.11.34.127.535.068-.195.143-.383.35-.535.611zm0-3.268a2.24 2.24 0 0 0-.277.8c-.034-.224-.125-.41-.278-.519-.15-.11-.338-.129-.535-.07.197-.14.385-.348.535-.611a2.18 2.18 0 0 0 .278-.801c.035.224.127.41.277.52a.59.59 0 0 0 .535.068c-.195.142-.383.35-.535.613zm0-3.272a2.217 2.217 0 0 0-.277.801c-.034-.222-.125-.408-.278-.517-.15-.11-.338-.127-.535-.07.197-.143.385-.35.535-.614.153-.262.244-.541.278-.799.035.225.127.41.277.52.152.107.34.127.535.068-.195.143-.385.35-.535.611zm3.078 21.329a2.204 2.204 0 0 0-.277.8c-.034-.224-.125-.41-.278-.52-.15-.109-.338-.126-.535-.07.197-.14.385-.35.535-.61.153-.265.244-.542.278-.802.035.225.125.41.277.52.152.11.34.127.535.068a2.01 2.01 0 0 0-.535.614zm0-3.272a2.226 2.226 0 0 0-.277.803c-.034-.227-.125-.41-.278-.52-.15-.11-.338-.129-.535-.07.197-.14.383-.348.535-.613.153-.262.244-.541.278-.8.035.225.125.411.277.52.152.11.34.127.535.069-.195.142-.383.35-.535.611zm0-3.27a2.23 2.23 0 0 0-.277.801c-.034-.224-.125-.408-.278-.517-.152-.11-.338-.13-.535-.07.197-.141.385-.35.535-.614.153-.262.244-.54.278-.799.035.225.125.41.277.52.152.107.34.127.535.068a2 2 0 0 0-.535.612zm0-3.269a2.217 2.217 0 0 0-.277.8c-.034-.224-.125-.41-.278-.519a.594.594 0 0 0-.535-.068c.197-.143.385-.35.535-.613a2.18 2.18 0 0 0 .278-.801c.035.224.125.41.277.521.15.11.34.125.535.069-.195.14-.383.35-.535.611zm0-3.27a2.204 2.204 0 0 0-.277.801c-.034-.224-.125-.41-.278-.52-.15-.107-.338-.126-.535-.07.197-.14.385-.347.535-.611.153-.264.244-.541.278-.8.035.224.125.41.277.519.152.107.34.127.535.07-.195.14-.383.35-.535.611zm0-3.271a2.226 2.226 0 0 0-.277.803c-.034-.225-.125-.41-.278-.52-.15-.11-.338-.129-.535-.07.197-.14.385-.35.535-.611a2.18 2.18 0 0 0 .278-.801c.035.222.125.41.277.52.152.109.34.126.535.068a2.026 2.026 0 0 0-.535.61zm0-3.27a2.226 2.226 0 0 0-.277.803c-.034-.226-.125-.41-.278-.52-.15-.109-.338-.128-.535-.072.197-.138.385-.347.535-.611.153-.262.244-.541.278-.799.035.225.125.41.277.52.152.11.34.127.535.068-.195.143-.383.35-.535.611zm0-3.271a2.24 2.24 0 0 0-.277.803c-.034-.225-.125-.408-.278-.518-.152-.11-.338-.129-.535-.07.197-.143.385-.35.535-.613.153-.264.244-.541.278-.801.035.226.125.41.277.521.15.108.34.127.535.069a1.966 1.966 0 0 0-.535.609zm3.078 21.328a2.191 2.191 0 0 0-.277.8c-.033-.224-.125-.407-.278-.517-.15-.11-.34-.129-.535-.07.196-.14.385-.35.535-.613a2.16 2.16 0 0 0 .278-.8c.033.225.125.411.277.52.153.108.338.127.535.069-.197.142-.383.35-.535.611zm0-3.27a2.18 2.18 0 0 0-.277.801c-.033-.224-.125-.41-.278-.52-.15-.109-.34-.126-.535-.068.196-.142.385-.35.535-.613.153-.263.245-.54.278-.8.033.224.125.41.277.52.15.108.338.128.535.07-.197.142-.385.349-.535.61zm0-3.269a2.168 2.168 0 0 0-.277.8c-.033-.224-.125-.41-.278-.519-.15-.11-.34-.127-.535-.07a1.93 1.93 0 0 0 .535-.611 2.17 2.17 0 0 0 .278-.801c.033.224.125.41.277.52.153.107.338.126.535.07-.197.14-.383.35-.535.611zm0-3.271a2.189 2.189 0 0 0-.277.802c-.033-.224-.125-.41-.278-.52-.15-.109-.34-.128-.535-.07.196-.14.385-.347.535-.613a2.16 2.16 0 0 0 .278-.799c.033.225.125.41.277.52.153.11.338.127.535.068a1.996 1.996 0 0 0-.535.612zm0-3.27a2.188 2.188 0 0 0-.277.803c-.033-.225-.125-.41-.278-.52-.15-.11-.34-.129-.535-.07.196-.14.385-.35.535-.613a2.16 2.16 0 0 0 .278-.8c.033.225.125.41.277.52.15.108.338.127.535.069-.197.142-.383.35-.535.611zm0-3.27a2.193 2.193 0 0 0-.277.801c-.033-.224-.125-.408-.278-.517-.15-.11-.34-.13-.535-.07.196-.143.385-.35.535-.614a2.17 2.17 0 0 0 .278-.8c.033.224.125.41.277.52.15.108.338.128.535.07-.197.142-.385.349-.535.61zm0-3.27a2.168 2.168 0 0 0-.277.802c-.033-.225-.125-.41-.278-.52-.15-.11-.34-.127-.535-.07.196-.14.385-.348.535-.611.153-.264.245-.541.278-.801.033.224.125.41.277.52.153.109.338.128.535.07-.197.14-.383.35-.535.61zm0-3.27a2.177 2.177 0 0 0-.277.802c-.033-.224-.125-.41-.278-.52-.15-.109-.34-.126-.535-.07a1.93 1.93 0 0 0 .535-.611c.153-.264.245-.543.278-.8.033.224.125.41.277.519.153.11.338.127.535.068-.197.143-.385.35-.535.611zm3.078 24.597a2.168 2.168 0 0 0-.277.8c-.035-.224-.125-.407-.277-.519a.608.608 0 0 0-.536-.07c.196-.14.383-.348.536-.611a2.24 2.24 0 0 0 .277-.801c.033.225.123.41.277.521.15.108.338.127.535.069a1.93 1.93 0 0 0-.535.611zm0-3.27a2.167 2.167 0 0 0-.277.801c-.035-.224-.125-.41-.277-.52-.153-.109-.34-.126-.536-.07.196-.14.383-.347.536-.61a2.24 2.24 0 0 0 .277-.802c.033.225.125.41.277.52.15.11.338.127.535.07a1.93 1.93 0 0 0-.535.612zm0-3.27a2.188 2.188 0 0 0-.277.802c-.035-.225-.125-.41-.277-.52a.596.596 0 0 0-.536-.07c.196-.14.383-.348.536-.613.15-.262.242-.541.277-.8.033.225.123.411.277.52.15.11.338.127.535.069a1.973 1.973 0 0 0-.535.611zm0-3.27a2.19 2.19 0 0 0-.277.802c-.035-.226-.125-.41-.277-.52a.596.596 0 0 0-.536-.07c.196-.14.383-.35.536-.613.15-.262.242-.54.277-.799.033.225.125.41.277.52.15.107.338.127.535.068-.197.143-.384.35-.535.612zm0-3.27a2.157 2.157 0 0 0-.277.8c-.035-.224-.125-.407-.277-.517a.596.596 0 0 0-.536-.07c.196-.143.383-.35.536-.613a2.24 2.24 0 0 0 .277-.801c.033.224.123.41.277.521.15.108.338.127.535.069-.197.142-.384.35-.535.611zm0-3.27a2.168 2.168 0 0 0-.277.801c-.035-.224-.125-.41-.277-.52a.608.608 0 0 0-.536-.07c.196-.14.383-.347.536-.61a2.24 2.24 0 0 0 .277-.802c.033.225.125.41.277.52.15.11.338.127.535.07a1.93 1.93 0 0 0-.535.612zm0-3.271a2.154 2.154 0 0 0-.277.803c-.035-.225-.125-.41-.277-.52s-.34-.129-.536-.07c.196-.14.383-.348.536-.611.152-.264.242-.543.277-.801.033.224.123.41.277.52.15.109.338.126.535.068a1.972 1.972 0 0 0-.535.611zm0-3.27a2.188 2.188 0 0 0-.277.803c-.035-.224-.125-.41-.277-.52a.596.596 0 0 0-.536-.07c.196-.14.383-.35.536-.613.15-.262.242-.54.277-.799.033.225.125.41.277.52.15.11.338.127.535.068a1.95 1.95 0 0 0-.535.611zm0-3.27a2.158 2.158 0 0 0-.277.802c-.035-.225-.125-.409-.277-.518a.596.596 0 0 0-.536-.07c.196-.143.383-.35.536-.613.152-.264.242-.542.277-.801.033.226.123.41.277.521.15.108.338.127.535.069-.197.142-.384.35-.535.61zm3.078 24.599a2.17 2.17 0 0 0-.277.8c-.035-.224-.127-.41-.277-.52-.153-.109-.34-.126-.535-.07.195-.14.382-.347.535-.61.15-.264.242-.542.277-.802.033.225.125.41.277.52.15.11.338.127.536.07-.198.14-.385.35-.536.612zm0-3.272a2.19 2.19 0 0 0-.277.803c-.035-.225-.127-.41-.277-.52-.153-.11-.34-.127-.535-.07.195-.14.382-.35.535-.611.15-.264.242-.541.277-.801.033.225.125.41.277.52.15.109.338.126.536.068a1.972 1.972 0 0 0-.536.611zm0-3.27a2.181 2.181 0 0 0-.277.801c-.035-.224-.127-.41-.277-.52-.153-.109-.34-.126-.535-.067.195-.143.382-.35.535-.614.15-.263.242-.54.277-.8.033.226.125.41.277.52.15.11.338.128.536.07a1.95 1.95 0 0 0-.536.61zm0-3.269a2.182 2.182 0 0 0-.277.8c-.035-.224-.127-.407-.277-.517-.153-.111-.34-.129-.535-.072.195-.14.382-.348.535-.611.15-.262.242-.541.277-.8.033.225.125.411.277.518.15.11.338.13.536.07a1.95 1.95 0 0 0-.536.612zm0-3.27a2.181 2.181 0 0 0-.277.801c-.035-.224-.127-.41-.277-.52a.59.59 0 0 0-.535-.068c.195-.142.382-.35.535-.613.15-.264.242-.543.277-.8.033.224.123.41.277.52.15.108.338.126.536.067a1.96 1.96 0 0 0-.536.614zm0-3.269a2.17 2.17 0 0 0-.277.8c-.035-.224-.127-.411-.277-.519-.153-.11-.34-.127-.535-.07.195-.14.382-.348.535-.611.15-.264.242-.541.277-.801.033.224.125.41.277.52.15.107.338.126.536.07-.198.14-.385.347-.536.611zm0-3.271a2.154 2.154 0 0 0-.277.802c-.035-.224-.127-.41-.277-.52a.596.596 0 0 0-.535-.07c.195-.14.382-.35.535-.61.15-.267.242-.544.277-.804.033.225.125.412.277.522.15.11.338.127.536.068a1.97 1.97 0 0 0-.536.612zm0-3.27a2.169 2.169 0 0 0-.277.8c-.035-.224-.127-.41-.277-.519a.608.608 0 0 0-.535-.07c.195-.14.382-.348.535-.611.15-.264.242-.541.277-.801.033.226.125.41.277.52.15.109.338.128.536.07-.198.14-.385.35-.536.611zm0-3.271a2.202 2.202 0 0 0-.277.802c-.035-.224-.127-.408-.277-.517-.153-.112-.34-.13-.535-.073.195-.14.382-.347.535-.611.15-.264.242-.541.277-.8.033.226.125.41.277.519.15.11.338.129.536.068a1.994 1.994 0 0 0-.536.612zm3.077 27.867a2.225 2.225 0 0 0-.278.802c-.033-.226-.125-.41-.277-.52-.15-.108-.338-.128-.535-.07a1.92 1.92 0 0 0 .535-.613 2.16 2.16 0 0 0 .277-.799c.035.225.125.41.278.52.152.107.34.127.535.068a2 2 0 0 0-.535.612zm0-3.27a2.202 2.202 0 0 0-.278.803c-.033-.225-.125-.41-.277-.522-.15-.107-.338-.127-.535-.068.197-.14.382-.348.535-.613.152-.264.244-.541.277-.801.035.225.125.412.278.521.15.11.34.127.535.069-.196.14-.385.35-.535.611zm0-3.27a2.205 2.205 0 0 0-.278.801c-.033-.224-.125-.41-.277-.52-.15-.107-.338-.126-.535-.067.197-.143.382-.35.535-.614a2.17 2.17 0 0 0 .277-.8c.035.224.125.41.278.519.152.11.34.127.535.07-.196.14-.383.35-.535.612zm0-3.27a2.226 2.226 0 0 0-.278.802c-.033-.225-.123-.41-.277-.52-.15-.11-.338-.129-.535-.068.197-.143.385-.35.535-.613.152-.264.244-.543.277-.801.035.225.125.41.278.52.15.109.34.128.535.068a1.999 1.999 0 0 0-.535.611zm0-3.27a2.226 2.226 0 0 0-.278.802c-.033-.226-.125-.41-.277-.52-.15-.109-.338-.128-.535-.07.197-.14.382-.35.535-.613a2.16 2.16 0 0 0 .277-.799c.035.225.125.41.278.52.152.107.34.127.535.068-.196.143-.383.35-.535.612zm0-3.27a2.213 2.213 0 0 0-.278.803c-.033-.227-.125-.41-.277-.52-.15-.11-.338-.129-.535-.07.197-.14.382-.348.535-.613a2.16 2.16 0 0 0 .277-.8c.035.224.125.411.278.52.15.11.34.127.535.069-.196.142-.385.35-.535.611zm0-3.27a2.214 2.214 0 0 0-.278.803c-.033-.224-.125-.412-.277-.521-.15-.108-.338-.127-.535-.069.197-.14.385-.35.535-.613.152-.264.244-.54.277-.8.035.224.125.411.278.52.15.108.34.126.535.07-.196.14-.385.349-.535.61zm0-3.271a2.227 2.227 0 0 0-.278.803c-.033-.225-.125-.41-.277-.52-.15-.107-.338-.127-.535-.068.197-.143.385-.35.535-.613.152-.264.244-.543.277-.801.035.224.125.41.278.52.15.109.34.126.535.07-.196.14-.385.347-.535.609zm0-3.27a2.226 2.226 0 0 0-.278.803c-.033-.224-.125-.41-.277-.52a.6.6 0 0 0-.535-.07c.197-.14.385-.35.535-.61.152-.265.244-.544.277-.802.035.225.125.41.278.52a.59.59 0 0 0 .535.068 2 2 0 0 0-.535.611zm0-3.269a2.213 2.213 0 0 0-.278.803c-.033-.227-.125-.41-.277-.52-.15-.11-.338-.129-.535-.07.197-.14.382-.35.535-.613a2.16 2.16 0 0 0 .277-.8c.035.225.125.41.278.52.15.11.34.127.535.069-.196.142-.385.35-.535.611zm3.078 27.867a2.169 2.169 0 0 0-.278.8c-.035-.224-.125-.41-.277-.519-.152-.109-.34-.127-.535-.068.195-.142.383-.35.535-.613.152-.264.242-.541.277-.801.034.225.125.41.278.52.15.109.338.127.535.068a1.958 1.958 0 0 0-.535.613zm0-3.271a2.19 2.19 0 0 0-.278.802c-.035-.224-.125-.412-.277-.52-.152-.108-.34-.126-.535-.07.195-.14.383-.347.535-.61.152-.264.242-.542.277-.801.034.224.125.41.278.519.15.11.338.127.535.068a1.97 1.97 0 0 0-.535.612zm0-3.27a2.19 2.19 0 0 0-.278.803c-.035-.227-.125-.41-.277-.52a.596.596 0 0 0-.535-.07c.195-.14.383-.35.535-.611.152-.264.242-.543.277-.801.034.225.125.41.278.52.15.109.338.126.535.068a1.95 1.95 0 0 0-.535.611zm0-3.27a2.181 2.181 0 0 0-.278.801c-.035-.224-.125-.41-.277-.52-.152-.108-.34-.126-.535-.067.195-.143.383-.35.535-.614.152-.263.242-.54.277-.8.034.226.125.41.278.52.15.108.338.128.535.07a1.95 1.95 0 0 0-.535.61zm0-3.269a2.17 2.17 0 0 0-.278.8c-.035-.224-.125-.41-.277-.519-.152-.109-.34-.127-.535-.07.195-.14.383-.348.535-.611.152-.264.242-.541.277-.801.034.225.125.41.278.52.15.109.338.126.535.07-.197.14-.385.35-.535.611zm0-3.27a2.169 2.169 0 0 0-.278.801c-.035-.224-.125-.41-.277-.52a.59.59 0 0 0-.535-.068c.195-.142.383-.35.535-.613.152-.263.242-.543.277-.8.034.224.125.41.278.519.15.11.338.127.535.068a1.958 1.958 0 0 0-.535.614zm0-3.27a2.19 2.19 0 0 0-.278.802c-.035-.225-.125-.412-.277-.52-.152-.11-.34-.127-.535-.07.195-.14.383-.35.535-.611.152-.264.242-.541.277-.801.034.224.125.41.278.52.15.107.338.126.535.068a1.95 1.95 0 0 0-.535.611zm0-3.27a2.19 2.19 0 0 0-.278.802c-.035-.226-.125-.41-.277-.52a.596.596 0 0 0-.535-.07c.195-.14.383-.35.535-.61.152-.266.242-.544.277-.804.034.225.125.41.278.522.15.11.338.127.535.068a1.95 1.95 0 0 0-.535.611zm0-3.27a2.17 2.17 0 0 0-.278.8c-.035-.224-.125-.41-.277-.519a.608.608 0 0 0-.535-.07c.195-.14.383-.348.535-.611.152-.264.242-.541.277-.801.034.226.125.41.278.52.15.109.338.128.535.07-.197.14-.385.35-.535.611zm0-3.272a2.19 2.19 0 0 0-.278.803c-.035-.224-.125-.41-.277-.52-.152-.109-.34-.126-.535-.07.195-.14.383-.347.535-.61.152-.265.242-.544.277-.802.034.225.125.41.278.52.15.11.338.127.535.068a1.973 1.973 0 0 0-.535.611zm3.078 31.14a2.17 2.17 0 0 0-.278.8c-.035-.225-.125-.41-.277-.52-.152-.109-.34-.126-.535-.07.195-.14.383-.35.535-.611.152-.264.242-.541.277-.801.034.225.125.412.278.522.15.107.338.126.535.068-.197.14-.385.35-.535.611zm0-3.27a2.169 2.169 0 0 0-.278.8c-.035-.226-.125-.41-.277-.52-.152-.108-.34-.126-.535-.07.195-.14.383-.347.535-.61.152-.264.242-.542.277-.801.034.224.125.41.278.519.15.11.338.127.535.068-.197.143-.385.35-.535.614zm0-3.272a2.19 2.19 0 0 0-.278.803c-.035-.225-.125-.41-.277-.52a.596.596 0 0 0-.535-.07c.195-.14.383-.348.535-.611.152-.264.242-.543.277-.801.034.225.125.41.278.52.15.109.338.126.535.068a1.97 1.97 0 0 0-.535.611zm0-3.27a2.181 2.181 0 0 0-.278.801c-.035-.224-.125-.41-.277-.517a.596.596 0 0 0-.535-.07c.195-.141.383-.35.535-.614.152-.261.242-.54.277-.799.034.225.125.41.278.52.15.107.338.125.535.068a1.95 1.95 0 0 0-.535.612zm0-3.269a2.17 2.17 0 0 0-.278.8c-.035-.224-.125-.41-.277-.519-.152-.109-.34-.127-.535-.068.195-.143.383-.35.535-.613.152-.264.242-.541.277-.801.034.225.125.41.278.521.15.11.338.127.535.069a1.95 1.95 0 0 0-.535.611zm0-3.27a2.17 2.17 0 0 0-.278.801c-.035-.224-.125-.41-.277-.52-.152-.109-.34-.126-.535-.07.195-.14.383-.35.535-.61.152-.264.242-.542.277-.802.034.225.125.41.278.52.15.11.338.127.535.07-.197.14-.385.35-.535.612zm0-3.27a2.19 2.19 0 0 0-.278.802c-.035-.227-.125-.41-.277-.52a.596.596 0 0 0-.535-.07c.195-.14.383-.348.535-.613.152-.262.242-.541.277-.8.034.226.125.411.278.52.15.11.338.127.535.069a1.95 1.95 0 0 0-.535.611zm0-3.27a2.19 2.19 0 0 0-.278.802c-.035-.224-.125-.41-.277-.52a.596.596 0 0 0-.535-.07c.195-.14.383-.35.535-.61.152-.265.242-.544.277-.802.034.225.125.41.278.52.15.107.338.127.535.068a1.95 1.95 0 0 0-.535.612zm0-3.27a2.182 2.182 0 0 0-.278.8c-.035-.224-.125-.41-.277-.517a.596.596 0 0 0-.535-.07c.195-.143.383-.35.535-.613.152-.264.242-.541.277-.801.034.225.125.412.278.521.15.108.338.125.535.069a1.95 1.95 0 0 0-.535.611zm0-3.27a2.17 2.17 0 0 0-.278.801c-.035-.224-.125-.41-.277-.52a.608.608 0 0 0-.535-.07c.195-.14.383-.347.535-.61.152-.265.242-.542.277-.802.034.225.125.41.278.52.15.11.338.129.535.07-.197.14-.385.35-.535.611zm0-3.271a2.19 2.19 0 0 0-.278.803c-.035-.225-.125-.41-.277-.52-.152-.11-.34-.127-.535-.07.195-.14.383-.35.535-.611.152-.264.242-.543.277-.801.034.224.125.41.278.52.15.109.338.126.535.068a1.973 1.973 0 0 0-.535.611zm3.076 31.137a2.214 2.214 0 0 0-.277.803c-.034-.225-.125-.413-.278-.52-.15-.11-.338-.129-.533-.07.195-.141.383-.35.533-.612a2.18 2.18 0 0 0 .278-.8c.035.224.125.41.277.52.15.108.34.126.535.067a2 2 0 0 0-.535.612zm0-3.27a2.23 2.23 0 0 0-.277.801c-.034-.225-.125-.41-.278-.52-.15-.109-.338-.126-.533-.068.195-.14.383-.35.533-.613.153-.264.244-.541.278-.801.035.227.125.41.277.522.152.107.34.127.535.068-.195.14-.383.35-.535.611zm0-3.27a2.204 2.204 0 0 0-.277.801c-.034-.224-.125-.41-.278-.52-.15-.108-.338-.126-.533-.07.195-.14.383-.347.533-.61.153-.264.244-.542.278-.801.035.224.125.41.277.519.152.11.34.129.535.07-.195.141-.383.35-.535.612zm0-3.269a2.204 2.204 0 0 0-.277.8c-.034-.226-.125-.41-.278-.519-.15-.109-.338-.127-.533-.07.195-.14.383-.348.533-.611.153-.264.244-.541.278-.801.035.225.127.41.277.52.152.107.34.126.535.068-.195.142-.383.35-.535.613zm0-3.271a2.225 2.225 0 0 0-.277.802c-.034-.224-.125-.41-.278-.52-.15-.108-.338-.128-.533-.07.195-.14.383-.347.533-.61.153-.264.244-.544.278-.802.035.225.125.41.277.52.152.11.34.127.535.068a2.022 2.022 0 0 0-.535.612zm0-3.27a2.218 2.218 0 0 0-.277.8c-.034-.224-.125-.41-.278-.517-.15-.109-.338-.129-.533-.07.195-.14.383-.35.533-.613.153-.262.244-.541.278-.8.035.226.125.41.277.52.152.108.34.125.535.069a2 2 0 0 0-.535.611zm0-3.27a2.23 2.23 0 0 0-.277.801c-.034-.224-.125-.41-.278-.52a.585.585 0 0 0-.533-.067c.195-.143.383-.35.533-.614a2.18 2.18 0 0 0 .278-.8c.035.224.125.41.277.52.15.11.34.128.535.07-.195.14-.383.349-.535.61zm0-3.269a2.204 2.204 0 0 0-.277.8c-.034-.224-.125-.41-.278-.519-.15-.11-.338-.127-.533-.07.195-.14.383-.35.533-.611.153-.264.244-.541.278-.801.035.224.125.41.277.52.152.107.34.126.535.07-.195.14-.383.35-.535.611zm0-3.271a2.226 2.226 0 0 0-.277.802c-.034-.226-.125-.41-.278-.52-.15-.109-.338-.128-.533-.07.195-.14.383-.347.533-.61a2.18 2.18 0 0 0 .278-.802c.035.223.127.41.277.52.152.11.34.127.535.068-.195.143-.383.35-.535.612zm0-3.27a2.225 2.225 0 0 0-.277.803c-.034-.225-.125-.41-.278-.52-.15-.11-.338-.129-.533-.07.195-.14.383-.35.533-.611a2.18 2.18 0 0 0 .278-.801c.035.224.127.41.277.52.152.109.34.126.535.068-.195.142-.383.35-.535.611zm0-3.271a2.225 2.225 0 0 0-.277.802c-.034-.224-.125-.41-.278-.517-.15-.11-.338-.13-.533-.07.195-.143.383-.35.533-.614.153-.264.244-.54.278-.8.035.226.125.41.277.52.152.108.34.126.535.07-.195.142-.385.349-.535.609zm3.078 34.408a2.193 2.193 0 0 0-.277.8c-.033-.224-.125-.408-.278-.517-.15-.11-.337-.129-.535-.07.198-.143.385-.35.535-.614.153-.261.245-.54.278-.798.033.224.125.408.277.52.15.107.34.126.535.067-.195.143-.384.35-.535.612zm0-3.27a2.17 2.17 0 0 0-.277.801c-.033-.225-.125-.41-.278-.52-.15-.107-.337-.126-.535-.07.198-.14.385-.347.535-.611.153-.264.245-.541.278-.8.033.224.125.41.277.52.15.108.34.128.535.069-.195.14-.384.35-.535.611zm0-3.27a2.17 2.17 0 0 0-.277.802c-.033-.225-.125-.41-.278-.52-.15-.11-.337-.127-.535-.07.198-.141.385-.348.535-.612.153-.263.245-.54.278-.8.033.224.125.41.277.52.15.108.34.126.535.067a1.985 1.985 0 0 0-.535.614zm0-3.27a2.19 2.19 0 0 0-.277.802c-.033-.225-.125-.41-.278-.52-.15-.109-.337-.128-.535-.07.198-.14.385-.348.535-.611a2.18 2.18 0 0 0 .278-.801c.033.225.125.41.277.52.15.109.34.127.535.068a1.999 1.999 0 0 0-.535.611zm0-3.27a2.193 2.193 0 0 0-.277.8c-.033-.224-.125-.408-.278-.517-.15-.11-.337-.129-.535-.07.198-.141.385-.35.535-.614.153-.261.245-.54.278-.798.033.224.125.41.277.519.15.107.34.127.535.068-.195.143-.384.35-.535.612zm0-3.27a2.169 2.169 0 0 0-.277.8c-.033-.224-.125-.407-.278-.519-.15-.107-.337-.127-.535-.068.198-.142.385-.35.535-.613.153-.264.245-.541.278-.801.033.225.125.41.277.522.15.107.34.126.535.068-.195.142-.384.35-.535.611zm0-3.27a2.17 2.17 0 0 0-.277.801c-.033-.224-.125-.41-.278-.52-.15-.108-.337-.126-.535-.07a1.91 1.91 0 0 0 .535-.61c.153-.264.245-.542.278-.801.033.224.125.41.277.519.15.11.34.127.535.07-.195.14-.384.35-.535.612zm0-3.27a2.19 2.19 0 0 0-.277.802c-.033-.225-.125-.41-.278-.52-.15-.109-.337-.129-.535-.07.198-.14.385-.348.535-.611a2.18 2.18 0 0 0 .278-.801c.033.224.125.41.277.52.15.109.34.126.535.068a1.998 1.998 0 0 0-.535.611zm0-3.27a2.19 2.19 0 0 0-.277.802c-.033-.224-.125-.41-.278-.52-.15-.109-.337-.128-.535-.07.198-.14.385-.35.535-.61a2.18 2.18 0 0 0 .278-.802c.033.225.125.41.277.52a.6.6 0 0 0 .535.068c-.195.143-.384.35-.535.612zm0-3.27a2.194 2.194 0 0 0-.277.8c-.033-.224-.125-.407-.278-.517-.15-.11-.337-.129-.535-.07.198-.143.385-.35.535-.613.153-.264.245-.541.278-.801.033.224.125.41.277.521.15.108.34.127.535.069-.195.142-.384.35-.535.611zm0-3.27a2.169 2.169 0 0 0-.277.801c-.033-.224-.125-.41-.278-.52-.15-.107-.337-.126-.535-.07.198-.14.385-.347.535-.61.153-.264.245-.542.278-.802.033.225.125.41.277.52.15.11.34.129.535.07-.195.14-.384.35-.535.612zm0-3.27a2.19 2.19 0 0 0-.277.802c-.033-.225-.125-.41-.278-.52-.15-.11-.337-.127-.535-.07.198-.14.385-.348.535-.611.153-.264.245-.543.278-.801.033.224.125.41.277.52.15.109.34.126.535.068a1.998 1.998 0 0 0-.535.611z"/></g></g></svg>