<svg id="Layer_1" data-name="Layer 1" xmlns="http://www.w3.org/2000/svg" viewBox="0 0 144 144"><title>Icon</title><path d="M118,45.55H103.77c2.38-5.48,2-10.8-1-14.32C99.5,27.48,93.87,26.62,88.07,29,79.58,32.41,74.35,39.72,72,43.73c-2.35-4-7.58-11.32-16.08-14.76-5.8-2.35-11.42-1.49-14.68,2.26-3.06,3.52-3.39,8.84-1,14.32H26V66.11h9.82v50.23h73.46V66.11H118ZM89.27,31.91c4.5-1.82,8.75-1.29,11.09,1.4s2.39,7.45-.11,12.24H74.63C76.71,42,81.56,35,89.27,31.91Zm-6.36,31H62.11V48.72h20.8ZM43.64,33.31c2.33-2.69,6.59-3.22,11.09-1.4C62.44,35,67.29,42,69.37,45.55H43.75C41.24,40.76,41.18,36.13,43.64,33.31ZM29.14,62.93V48.72H58.93V62.93H29.14Zm29.79,50.23H39v-47h20Zm3.18,0v-47h20.8v47.05Zm44,0h-20v-47h20Zm8.8-50.23H86.08V48.72h28.78Z"/></svg>