<svg id="Layer_1" data-name="Layer 1" xmlns="http://www.w3.org/2000/svg" viewBox="0 0 144 144"><title>144x144 copy 2</title><path d="M35.6,65.72c.09-.5.14-1,.25-1.48A8.79,8.79,0,0,1,41,57.92,5.3,5.3,0,0,1,43,57.5c3.8-.08,7.6-.14,11.4-.16,8.42-.05,16.84-.1,25.26-.1,6,0,11.94.08,17.92.13,1.3,0,2.61,0,3.91.13a6.91,6.91,0,0,1,4.15,2.07A8.13,8.13,0,0,1,108.39,66c-.08,2.88-.06,5.77-.14,8.65,0,1.46-.37,2.11-2,2.15-1.39,0-2.79.08-4.18.08H56.8c-3.32,0-6.64,0-10,0-2.83,0-5.66-.06-8.49-.14-1.8-.06-2.52-.86-2.61-2.66,0-.34-.09-.67-.14-1Zm70.19,8.36c0-.3,0-.55,0-.8,0-2.47-.18-5-.11-7.42A6.08,6.08,0,0,0,99.81,60c-4,0-8-.05-12.08-.05H52.16q-4.24,0-8.51.14a5.85,5.85,0,0,0-5.15,5.14c-.09,2.81-.11,5.63-.15,8.44a3.13,3.13,0,0,0,0,.42Z"/><path d="M74.61,117.79V80.16h.8q8.48,0,17,0c3.29,0,6.59.06,9.88.12a3.72,3.72,0,0,1,2.41.63,2.65,2.65,0,0,1,1.16,2.24c-.06,8.73-.12,17.45-.07,26.17a7,7,0,0,1-2,4.92A10.19,10.19,0,0,1,96,117.7c-.25,0-.49.06-.73.09Zm3-2.77c.22,0,.33,0,.44,0,5.91,0,11.81,0,17.71,0,4.26,0,7-2.78,7-7q0-12.15,0-24.3c0-.25,0-.49,0-.73H77.66Z"/><path d="M49.48,117.79c-1-.08-2.09-.1-3.12-.27a9.88,9.88,0,0,1-7.19-5,5.6,5.6,0,0,1-.77-2.92c0-8.13,0-16.26,0-24.39,0-.79.11-1.59.11-2.39,0-1.52.8-2.09,2.26-2.47a5,5,0,0,1,1.16-.09l27.19-.14.45,0v37.6ZM66.48,83H41.37c0,.19,0,.35,0,.5q0,12.92.06,25.83a4.55,4.55,0,0,0,.32,1.59,6.57,6.57,0,0,0,5.16,4,29.9,29.9,0,0,0,5.19.26c4.6,0,9.2,0,13.8-.07l.63-.06Z"/><path d="M67.6,40.38a8.74,8.74,0,0,0-6.66,2.54c-.7-.77-1.27-1.52-2-2.14-1.41-1.25-2.84-2.51-4.36-3.63a3.33,3.33,0,0,0-3.06-.57,4.45,4.45,0,0,0-2.71,2.54,1.26,1.26,0,0,0,.33,1.52,17.15,17.15,0,0,0,3.07,2.12c2.1,1,4.29,1.78,6.47,2.59.59.22.67.47.58,1-.3,2-.52,3.93-.77,5.9,0,.18,0,.36-.06.65-.89-.06-1.75-.08-2.6-.17a30.55,30.55,0,0,1-8.65-1.92c-3.23-1.34-6-3.23-7.68-6.41a10.48,10.48,0,0,1,.18-10.25c2.14-4.07,5.33-7,10-7.81a12.79,12.79,0,0,1,8.4,1.51A18.53,18.53,0,0,1,64.47,34,26.28,26.28,0,0,1,67.6,40.38Zm-4-2.31s0-.1,0-.14a1.75,1.75,0,0,0-.12-.32,17,17,0,0,0-6.84-7.38,9.38,9.38,0,0,0-9-.32,12.81,12.81,0,0,0-5,4.73,8.34,8.34,0,0,0,2.2,11.75,17.07,17.07,0,0,0,6.41,2.82c1.54.38,3.11.63,4.71.94a14.84,14.84,0,0,1,.25-1.88c.15-.55,0-.8-.52-1-1.13-.48-2.26-1-3.38-1.47a15.78,15.78,0,0,1-4.82-3,4.34,4.34,0,0,1-.83-5.34,7.64,7.64,0,0,1,2.95-3,5.76,5.76,0,0,1,3.69-.68,8.35,8.35,0,0,1,4.09,1.78c1.25,1,2.42,2.09,3.6,3.17a.63.63,0,0,0,.83.15C62.33,38.61,62.93,38.36,63.57,38.07Z"/><path d="M85.83,52.91c-.36-2.37-.69-4.62-1-6.87-.07-.46.23-.53.53-.65,1.73-.64,3.48-1.23,5.18-2A31.1,31.1,0,0,0,94,41.51a4,4,0,0,0,1-1,1.49,1.49,0,0,0,.06-1.85,4.46,4.46,0,0,0-2.84-2.12,3.88,3.88,0,0,0-2,.25,12.43,12.43,0,0,0-4.14,3c-1,1-1.88,2-2.92,3.09a8.9,8.9,0,0,0-6.64-2.54c.23-.6.38-1,.54-1.44a23.38,23.38,0,0,1,6.15-9.06c5-4.54,13.11-5.55,18.91,1a13.06,13.06,0,0,1,3.64,8.64,10.41,10.41,0,0,1-3.51,8,19.24,19.24,0,0,1-10.17,4.73c-1.81.33-3.66.46-5.5.68A6.7,6.7,0,0,1,85.83,52.91Zm2.43-2.78c1.43-.26,2.82-.49,4.19-.77a15.54,15.54,0,0,0,8.63-4.57A7.62,7.62,0,0,0,103,38.24,10.51,10.51,0,0,0,100,32.62c-3.81-4.15-8.68-4.86-13.39-1.88a17.48,17.48,0,0,0-6,7,1.11,1.11,0,0,0-.09.32c.6.27,1.19.48,1.71.78a.77.77,0,0,0,1.06-.16C84.86,37.37,86.38,36,88,34.84a6.25,6.25,0,0,1,4-1.07,6.36,6.36,0,0,1,4.71,2.59c2,2.47,1.81,5.22-.79,7.08a42.09,42.09,0,0,1-5,2.76c-.83.43-1.71.76-2.57,1.13a.6.6,0,0,0-.4.81C88.13,48.73,88.16,49.35,88.26,50.13Z"/><path d="M83.35,54.69H60.73s-.08-.07-.08-.11c.15-2.5-.07-5,.65-7.49a5.87,5.87,0,0,1,2.81-4,6.33,6.33,0,0,1,3.69-.42c1,.11,1.94.29,2.9.48a13.72,13.72,0,0,0,4.82-.31,15.79,15.79,0,0,1,3.14-.21,4.13,4.13,0,0,1,3.54,2.56A11.6,11.6,0,0,1,83.33,50C83.41,51.55,83.35,53.1,83.35,54.69Zm-2.51-2.75A17.85,17.85,0,0,0,80,46.83a2.41,2.41,0,0,0-.68-1,2.91,2.91,0,0,0-1.34-.54,6.46,6.46,0,0,0-1.56.19,21.73,21.73,0,0,1-3.71.55,30.27,30.27,0,0,1-4.73-.59c-2.42-.44-3.23,0-3.94,2.36,0,0,0,.08-.05.13-.23,1.33-.47,2.66-.71,4Z"/></svg>