<svg width="200" height="36" viewBox="0 0 200 36" fill="none" xmlns="http://www.w3.org/2000/svg">
<path d="M8.224 24V21.472H6.4C6.99733 20.064 7.44533 19.008 7.744 18.304C8.04267 17.6 8.49067 16.544 9.088 15.136H16.128C16.576 16.2027 17.0133 17.2587 17.44 18.304C17.888 19.3493 18.336 20.4053 18.784 21.472H16.992V24H24.096V21.472H21.472C20 17.952 18.5173 14.4747 17.024 11.04C15.552 7.584 14.08 4.096 12.608 0.575998C11.136 4.096 9.65333 7.584 8.16 11.04C6.688 14.4747 5.216 17.952 3.744 21.472H1.12V24H8.224ZM12.256 7.52C12.2773 7.456 12.3093 7.34933 12.352 7.2C12.416 7.05067 12.4907 6.80533 12.576 6.464L12.896 7.52L15.04 12.608H10.176C10.4747 11.8613 10.7947 11.04 11.136 10.144C11.4987 9.22667 11.872 8.352 12.256 7.52ZM34.0508 22.816C34.3494 22.4107 34.5521 21.9947 34.6588 21.568C34.7868 21.1413 34.8508 20.7787 34.8508 20.48C34.8508 19.8187 34.7334 19.2747 34.4988 18.848C34.2641 18.4 33.9654 18.0267 33.6028 17.728C33.2401 17.4507 32.8454 17.216 32.4188 17.024C31.9921 16.832 31.5974 16.6613 31.2348 16.512C30.8508 16.3627 30.5201 16.2133 30.2428 16.064C29.9654 15.8933 29.8054 15.68 29.7628 15.424C29.7414 15.2533 29.7521 15.104 29.7948 14.976C29.8374 14.8267 29.9121 14.6987 30.0188 14.592C30.1254 14.5067 30.2641 14.4427 30.4348 14.4C30.6054 14.336 30.8081 14.304 31.0428 14.304C31.2134 14.304 31.3734 14.3253 31.5228 14.368C31.6721 14.3893 31.8321 14.4213 32.0028 14.464V15.84H34.3708V13.056C34.1361 12.8 33.8588 12.5867 33.5388 12.416C33.2401 12.2453 32.9308 12.1067 32.6108 12C32.2908 11.8933 31.9708 11.8187 31.6508 11.776C31.3521 11.7333 31.0961 11.712 30.8828 11.712C30.5201 11.712 30.1148 11.776 29.6668 11.904C29.2188 12.032 28.8028 12.2453 28.4188 12.544C28.0348 12.8213 27.7148 13.184 27.4588 13.632C27.2028 14.08 27.0748 14.6347 27.0748 15.296C27.0748 16.0427 27.2028 16.64 27.4588 17.088C27.7148 17.536 28.0348 17.8773 28.4188 18.112C28.8241 18.368 29.2508 18.5707 29.6988 18.72C30.1468 18.848 30.5521 18.9867 30.9148 19.136C31.2988 19.264 31.5974 19.4347 31.8108 19.648C32.0454 19.84 32.1628 20.128 32.1628 20.512C32.1628 20.7253 32.1201 20.9067 32.0348 21.056C31.9708 21.184 31.8854 21.2907 31.7788 21.376C31.6294 21.4827 31.4588 21.5573 31.2668 21.6C31.0961 21.6427 30.9254 21.664 30.7548 21.664C30.3921 21.664 30.0828 21.6533 29.8268 21.632C29.5921 21.5893 29.3468 21.5147 29.0908 21.408V20.16H26.7228V22.944C27.1494 23.4133 27.7254 23.7547 28.4508 23.968C29.1761 24.16 29.9334 24.256 30.7228 24.256C31.5761 24.256 32.2694 24.1173 32.8028 23.84C33.3361 23.5627 33.7521 23.2213 34.0508 22.816ZM44.6758 22.816C44.9744 22.4107 45.1771 21.9947 45.2838 21.568C45.4118 21.1413 45.4758 20.7787 45.4758 20.48C45.4758 19.8187 45.3584 19.2747 45.1238 18.848C44.8891 18.4 44.5904 18.0267 44.2278 17.728C43.8651 17.4507 43.4704 17.216 43.0438 17.024C42.6171 16.832 42.2224 16.6613 41.8598 16.512C41.4758 16.3627 41.1451 16.2133 40.8678 16.064C40.5904 15.8933 40.4304 15.68 40.3878 15.424C40.3664 15.2533 40.3771 15.104 40.4198 14.976C40.4624 14.8267 40.5371 14.6987 40.6438 14.592C40.7504 14.5067 40.8891 14.4427 41.0598 14.4C41.2304 14.336 41.4331 14.304 41.6678 14.304C41.8384 14.304 41.9984 14.3253 42.1478 14.368C42.2971 14.3893 42.4571 14.4213 42.6278 14.464V15.84H44.9958V13.056C44.7611 12.8 44.4838 12.5867 44.1638 12.416C43.8651 12.2453 43.5558 12.1067 43.2358 12C42.9158 11.8933 42.5958 11.8187 42.2758 11.776C41.9771 11.7333 41.7211 11.712 41.5078 11.712C41.1451 11.712 40.7398 11.776 40.2918 11.904C39.8438 12.032 39.4278 12.2453 39.0438 12.544C38.6598 12.8213 38.3398 13.184 38.0838 13.632C37.8278 14.08 37.6998 14.6347 37.6998 15.296C37.6998 16.0427 37.8278 16.64 38.0838 17.088C38.3398 17.536 38.6598 17.8773 39.0438 18.112C39.4491 18.368 39.8758 18.5707 40.3238 18.72C40.7718 18.848 41.1771 18.9867 41.5398 19.136C41.9238 19.264 42.2224 19.4347 42.4358 19.648C42.6704 19.84 42.7878 20.128 42.7878 20.512C42.7878 20.7253 42.7451 20.9067 42.6598 21.056C42.5958 21.184 42.5104 21.2907 42.4038 21.376C42.2544 21.4827 42.0838 21.5573 41.8918 21.6C41.7211 21.6427 41.5504 21.664 41.3798 21.664C41.0171 21.664 40.7078 21.6533 40.4518 21.632C40.2171 21.5893 39.9718 21.5147 39.7158 21.408V20.16H37.3478V22.944C37.7744 23.4133 38.3504 23.7547 39.0758 23.968C39.8011 24.16 40.5584 24.256 41.3478 24.256C42.2011 24.256 42.8944 24.1173 43.4278 23.84C43.9611 23.5627 44.3771 23.2213 44.6758 22.816ZM54.6927 24V21.472H52.4848V12H47.5888V14.528H49.8288V21.472H47.5888V24H54.6927ZM52.8368 7.36C52.8368 6.86933 52.6661 6.464 52.3248 6.144C51.9834 5.824 51.6101 5.664 51.2048 5.664C50.7781 5.664 50.3941 5.824 50.0528 6.144C49.7114 6.464 49.5408 6.86933 49.5408 7.36C49.5408 7.85067 49.7114 8.256 50.0528 8.576C50.3941 8.87467 50.7781 9.024 51.2048 9.024C51.6101 9.024 51.9834 8.87467 52.3248 8.576C52.6661 8.256 52.8368 7.85067 52.8368 7.36ZM58.3085 30.08C58.9485 30.528 59.7165 30.9547 60.6125 31.36C61.5085 31.7867 62.4365 32 63.3965 32C64.2925 32 65.1245 31.84 65.8925 31.52C66.6605 31.2 67.3325 30.7627 67.9085 30.208C68.4845 29.6747 68.9325 29.0347 69.2525 28.288C69.5938 27.5627 69.7645 26.7733 69.7645 25.92V14.528H72.1965V12H67.5565C67.5138 12.2987 67.4818 12.5653 67.4605 12.8C67.4392 13.0347 67.4285 13.2693 67.4285 13.504C67.1725 13.0987 66.6818 12.704 65.9565 12.32C65.2525 11.9147 64.3885 11.712 63.3645 11.712C62.4685 11.712 61.6258 11.8827 60.8365 12.224C60.0472 12.5653 59.3645 13.024 58.7885 13.6C58.2125 14.176 57.7538 14.848 57.4125 15.616C57.0925 16.384 56.9325 17.184 56.9325 18.016C56.9325 18.8693 57.0925 19.68 57.4125 20.448C57.7538 21.1947 58.2125 21.8453 58.7885 22.4C59.3645 22.976 60.0472 23.4347 60.8365 23.776C61.6258 24.096 62.4685 24.256 63.3645 24.256C63.9405 24.256 64.4632 24.2027 64.9325 24.096C65.4018 23.9893 65.8072 23.8507 66.1485 23.68C66.4045 23.552 66.6285 23.424 66.8205 23.296C67.0125 23.1467 67.1405 23.0187 67.2045 22.912C67.1618 23.04 67.1298 23.1787 67.1085 23.328C67.1085 23.4773 67.1085 23.5733 67.1085 23.616V25.504C67.1085 26.0373 67.0125 26.528 66.8205 26.976C66.6498 27.4453 66.3938 27.84 66.0525 28.16C65.7112 28.5013 65.3058 28.768 64.8365 28.96C64.3885 29.152 63.8872 29.248 63.3325 29.248C62.7138 29.248 62.1165 29.0987 61.5405 28.8C60.9858 28.5227 60.4952 28.224 60.0685 27.904L58.3085 30.08ZM63.3645 14.304C63.8552 14.304 64.3138 14.3787 64.7405 14.528C65.1672 14.6773 65.5405 14.88 65.8605 15.136C66.2445 15.4773 66.5432 15.8933 66.7565 16.384C66.9912 16.8533 67.1085 17.3867 67.1085 17.984C67.1085 18.496 67.0232 18.976 66.8525 19.424C66.6818 19.872 66.4365 20.256 66.1165 20.576C65.7965 20.9173 65.4018 21.1947 64.9325 21.408C64.4632 21.6 63.9405 21.696 63.3645 21.696C62.8312 21.696 62.3405 21.6107 61.8925 21.44C61.4658 21.2693 61.0818 21.0347 60.7405 20.736C60.3992 20.3947 60.1218 19.9893 59.9085 19.52C59.7165 19.0507 59.6205 18.5387 59.6205 17.984C59.6205 17.4933 59.6952 17.0347 59.8445 16.608C59.9938 16.1813 60.2178 15.808 60.5165 15.488C60.8365 15.1253 61.2418 14.8373 61.7325 14.624C62.2232 14.4107 62.7672 14.304 63.3645 14.304ZM81.5365 24V21.472H79.5205V18.176C79.5205 17.6213 79.6378 17.1093 79.8725 16.64C80.1072 16.1707 80.4165 15.7653 80.8005 15.424C81.1845 15.0827 81.6218 14.816 82.1125 14.624C82.6245 14.432 83.1578 14.336 83.7125 14.336C84.5232 14.3787 85.1098 14.6133 85.4725 15.04C85.8565 15.4453 86.0698 15.936 86.1125 16.512V21.472H83.6485V24H90.7525V21.472H88.7685V15.296C88.7258 14.2293 88.3418 13.3653 87.6165 12.704C86.8912 12.0427 85.8992 11.712 84.6405 11.712C83.4885 11.712 82.4325 12.0213 81.4725 12.64C80.5338 13.2373 79.8512 14.048 79.4245 15.072C79.3818 14.56 79.3392 14.1013 79.2965 13.696C79.2752 13.2693 79.2432 12.8 79.2005 12.288V12H74.7525V14.528H76.8645V21.472H74.4325V24H81.5365Z" fill="#131313"/>
<path d="M109.693 24V21.472H107.677V18.176C107.677 17.5147 107.815 16.9173 108.093 16.384C108.391 15.8507 108.797 15.4133 109.309 15.072C109.65 14.8373 110.045 14.656 110.493 14.528C110.962 14.4 111.463 14.336 111.997 14.336L112.189 11.712C111.869 11.712 111.495 11.7867 111.069 11.936C110.663 12.0853 110.237 12.3093 109.789 12.608C109.362 12.8853 108.946 13.2373 108.541 13.664C108.157 14.0693 107.837 14.5387 107.581 15.072C107.538 14.56 107.517 14.3253 107.517 14.368C107.538 14.4107 107.527 14.176 107.485 13.664L107.357 12H102.909V14.528H105.021V21.472H102.589V24H109.693ZM120.833 14.304C121.281 14.304 121.686 14.4213 122.049 14.656C122.433 14.8693 122.774 15.1573 123.073 15.52C122.07 15.8827 121.067 16.256 120.065 16.64C119.083 17.0027 118.091 17.3653 117.089 17.728C117.11 17.28 117.195 16.864 117.345 16.48C117.515 16.096 117.729 15.7547 117.985 15.456C118.326 15.0933 118.731 14.816 119.201 14.624C119.691 14.4107 120.235 14.304 120.833 14.304ZM124.897 22.592L123.265 20.672C122.945 21.0133 122.582 21.2693 122.177 21.44C121.771 21.6107 121.323 21.696 120.833 21.696C120.171 21.696 119.574 21.568 119.041 21.312C118.529 21.0347 118.113 20.672 117.793 20.224C119.243 19.6907 120.683 19.1573 122.113 18.624C123.563 18.0907 125.014 17.5573 126.465 17.024C126.273 16.256 125.995 15.552 125.633 14.912C125.27 14.2507 124.854 13.6853 124.385 13.216C123.894 12.7467 123.339 12.384 122.72 12.128C122.123 11.8507 121.494 11.712 120.833 11.712C119.937 11.712 119.094 11.8827 118.305 12.224C117.537 12.544 116.865 12.9813 116.289 13.536C115.713 14.112 115.254 14.784 114.913 15.552C114.593 16.32 114.433 17.1307 114.433 17.984C114.433 18.8587 114.593 19.68 114.913 20.448C115.254 21.1947 115.713 21.856 116.289 22.432C116.865 23.008 117.537 23.4667 118.305 23.808C119.094 24.128 119.937 24.288 120.833 24.288C121.643 24.288 122.39 24.1387 123.073 23.84C123.755 23.5413 124.363 23.1253 124.897 22.592ZM139.239 22.912L137.639 20.896C137.297 21.1733 136.924 21.376 136.519 21.504C136.135 21.632 135.708 21.696 135.239 21.696C134.705 21.696 134.215 21.6107 133.767 21.44C133.319 21.248 132.924 21.0027 132.583 20.704C132.241 20.3627 131.975 19.9573 131.783 19.488C131.591 19.0187 131.495 18.5173 131.495 17.984C131.495 17.408 131.591 16.8853 131.783 16.416C131.996 15.9467 132.295 15.5413 132.679 15.2C132.999 14.9227 133.372 14.7093 133.799 14.56C134.247 14.3893 134.727 14.304 135.239 14.304C135.537 14.304 135.825 14.336 136.103 14.4C136.401 14.4427 136.679 14.528 136.935 14.656V16.8H139.303V13.088C138.748 12.6613 138.129 12.3307 137.447 12.096C136.764 11.84 136.028 11.712 135.239 11.712C134.343 11.712 133.5 11.8827 132.711 12.224C131.943 12.544 131.271 12.992 130.695 13.568C130.119 14.1227 129.66 14.784 129.319 15.552C128.999 16.32 128.839 17.1307 128.839 17.984C128.839 18.88 128.999 19.7013 129.319 20.448C129.66 21.1947 130.119 21.856 130.695 22.432C131.271 23.008 131.943 23.4667 132.711 23.808C133.5 24.128 134.343 24.288 135.239 24.288C136.007 24.288 136.721 24.1707 137.383 23.936C138.065 23.68 138.684 23.3387 139.239 22.912ZM148.661 24V21.472H146.454V12H141.558V14.528H143.798V21.472H141.558V24H148.661ZM146.806 7.36C146.806 6.86933 146.635 6.464 146.294 6.144C145.952 5.824 145.579 5.664 145.174 5.664C144.747 5.664 144.363 5.824 144.022 6.144C143.68 6.464 143.51 6.86933 143.51 7.36C143.51 7.85067 143.68 8.256 144.022 8.576C144.363 8.87467 144.747 9.024 145.174 9.024C145.579 9.024 145.952 8.87467 146.294 8.576C146.635 8.256 146.806 7.85067 146.806 7.36ZM151.221 32H158.325V29.472H156.021V23.392C156.021 23.3493 156.011 23.2853 155.989 23.2C155.989 23.1147 155.979 23.04 155.957 22.976C156.021 23.0613 156.117 23.1573 156.245 23.264C156.373 23.3493 156.608 23.4773 156.949 23.648C157.291 23.8187 157.696 23.968 158.165 24.096C158.635 24.224 159.168 24.288 159.765 24.288C160.661 24.288 161.504 24.128 162.293 23.808C163.083 23.4667 163.765 23.008 164.341 22.432C164.917 21.856 165.365 21.184 165.685 20.416C166.027 19.648 166.197 18.8373 166.197 17.984C166.197 17.1307 166.027 16.3307 165.685 15.584C165.365 14.816 164.917 14.144 164.341 13.568C163.765 12.992 163.083 12.544 162.293 12.224C161.504 11.8827 160.661 11.712 159.765 11.712C158.635 11.712 157.728 11.936 157.045 12.384C156.363 12.832 155.915 13.2053 155.701 13.504C155.68 13.2693 155.659 13.0347 155.637 12.8C155.616 12.544 155.595 12.2773 155.573 12H150.901V14.528H153.365V29.472H151.221V32ZM159.765 14.304C160.256 14.304 160.715 14.3787 161.141 14.528C161.568 14.6773 161.941 14.88 162.261 15.136C162.645 15.4773 162.944 15.8933 163.157 16.384C163.392 16.8533 163.509 17.3867 163.509 17.984C163.509 18.56 163.403 19.0933 163.189 19.584C162.976 20.0747 162.677 20.48 162.293 20.8C161.973 21.0773 161.6 21.3013 161.173 21.472C160.747 21.6213 160.277 21.696 159.765 21.696C159.253 21.696 158.773 21.6107 158.325 21.44C157.899 21.2693 157.525 21.0453 157.205 20.768C156.821 20.4267 156.523 20.0213 156.309 19.552C156.117 19.0613 156.021 18.5387 156.021 17.984C156.021 17.472 156.107 16.992 156.277 16.544C156.448 16.096 156.693 15.712 157.013 15.392C157.333 15.0507 157.728 14.784 158.197 14.592C158.667 14.4 159.189 14.304 159.765 14.304ZM174.833 14.304C175.281 14.304 175.686 14.4213 176.049 14.656C176.433 14.8693 176.774 15.1573 177.073 15.52C176.07 15.8827 175.067 16.256 174.065 16.64C173.083 17.0027 172.091 17.3653 171.089 17.728C171.11 17.28 171.195 16.864 171.345 16.48C171.515 16.096 171.729 15.7547 171.985 15.456C172.326 15.0933 172.731 14.816 173.201 14.624C173.691 14.4107 174.235 14.304 174.833 14.304ZM178.897 22.592L177.265 20.672C176.945 21.0133 176.582 21.2693 176.177 21.44C175.771 21.6107 175.323 21.696 174.833 21.696C174.171 21.696 173.574 21.568 173.041 21.312C172.529 21.0347 172.113 20.672 171.793 20.224C173.243 19.6907 174.683 19.1573 176.113 18.624C177.563 18.0907 179.014 17.5573 180.465 17.024C180.273 16.256 179.995 15.552 179.633 14.912C179.27 14.2507 178.854 13.6853 178.385 13.216C177.894 12.7467 177.339 12.384 176.72 12.128C176.123 11.8507 175.494 11.712 174.833 11.712C173.937 11.712 173.094 11.8827 172.305 12.224C171.537 12.544 170.865 12.9813 170.289 13.536C169.713 14.112 169.254 14.784 168.913 15.552C168.593 16.32 168.433 17.1307 168.433 17.984C168.433 18.8587 168.593 19.68 168.913 20.448C169.254 21.1947 169.713 21.856 170.289 22.432C170.865 23.008 171.537 23.4667 172.305 23.808C173.094 24.128 173.937 24.288 174.833 24.288C175.643 24.288 176.39 24.1387 177.073 23.84C177.755 23.5413 178.363 23.1253 178.897 22.592ZM190.551 22.816C190.849 22.4107 191.052 21.9947 191.159 21.568C191.287 21.1413 191.351 20.7787 191.351 20.48C191.351 19.8187 191.233 19.2747 190.999 18.848C190.764 18.4 190.465 18.0267 190.103 17.728C189.74 17.4507 189.345 17.216 188.919 17.024C188.492 16.832 188.097 16.6613 187.735 16.512C187.351 16.3627 187.02 16.2133 186.743 16.064C186.465 15.8933 186.305 15.68 186.263 15.424C186.241 15.2533 186.252 15.104 186.295 14.976C186.337 14.8267 186.412 14.6987 186.519 14.592C186.625 14.5067 186.764 14.4427 186.935 14.4C187.105 14.336 187.308 14.304 187.543 14.304C187.713 14.304 187.873 14.3253 188.023 14.368C188.172 14.3893 188.332 14.4213 188.503 14.464V15.84H190.871V13.056C190.636 12.8 190.359 12.5867 190.039 12.416C189.74 12.2453 189.431 12.1067 189.111 12C188.791 11.8933 188.471 11.8187 188.151 11.776C187.852 11.7333 187.596 11.712 187.383 11.712C187.02 11.712 186.615 11.776 186.167 11.904C185.719 12.032 185.303 12.2453 184.919 12.544C184.535 12.8213 184.215 13.184 183.959 13.632C183.703 14.08 183.575 14.6347 183.575 15.296C183.575 16.0427 183.703 16.64 183.959 17.088C184.215 17.536 184.535 17.8773 184.919 18.112C185.324 18.368 185.751 18.5707 186.199 18.72C186.647 18.848 187.052 18.9867 187.415 19.136C187.799 19.264 188.097 19.4347 188.311 19.648C188.545 19.84 188.663 20.128 188.663 20.512C188.663 20.7253 188.62 20.9067 188.535 21.056C188.471 21.184 188.385 21.2907 188.279 21.376C188.129 21.4827 187.959 21.5573 187.767 21.6C187.596 21.6427 187.425 21.664 187.255 21.664C186.892 21.664 186.583 21.6533 186.327 21.632C186.092 21.5893 185.847 21.5147 185.591 21.408V20.16H183.223V22.944C183.649 23.4133 184.225 23.7547 184.951 23.968C185.676 24.16 186.433 24.256 187.223 24.256C188.076 24.256 188.769 24.1173 189.303 23.84C189.836 23.5627 190.252 23.2213 190.551 22.816Z" fill="#5200FF"/>
</svg>
